<svg id="Capa_1" data-name="Capa 1" xmlns="http://www.w3.org/2000/svg" viewBox="0 0 32 32"><defs><style>.cls-1{fill:#41b6e6;}</style></defs><path class="cls-1" d="M32,16A16,16,0,1,0,10.43,31L10,32H22l-.43-1A16,16,0,0,0,32,16ZM15.21,19.84a2,2,0,1,1,1.58,0L16,18Zm1.61.08a4,4,0,1,0-1.64,0l-2.33,5.44A8,8,0,0,1,8,18a8.33,8.33,0,0,1,8-8.38A8.33,8.33,0,0,1,24,18a8,8,0,0,1-4.85,7.35Zm4.69,11L19.2,25.48a10,10,0,1,0-6.4,0l-2.31,5.39A14,14,0,0,1,2,18C2,10.27,8.27,3.63,16,3.63S30,10.27,30,18A14,14,0,0,1,21.51,30.87Z"/></svg>