<svg xmlns="http://www.w3.org/2000/svg" width="21" height="15" viewBox="0 0 21 15"><path d="M16.5,3H1.5A1.5,1.5,0,0,1,0,1.5H0A1.5,1.5,0,0,1,1.5,0h15A1.5,1.5,0,0,1,18,1.5h0A1.5,1.5,0,0,1,16.5,3Z" fill="#030303"/><g transform="translate(0 6)"><path d="M13.5,19H1.5A1.5,1.5,0,0,1,0,17.5H0A1.5,1.5,0,0,1,1.5,16h12A1.5,1.5,0,0,1,15,17.5h0A1.5,1.5,0,0,1,13.5,19Z" transform="translate(0 -16)" fill="#030303"/></g><g transform="translate(0 12)"><path d="M19.5,35H1.5A1.5,1.5,0,0,1,0,33.5H0A1.5,1.5,0,0,1,1.5,32h18A1.5,1.5,0,0,1,21,33.5h0A1.5,1.5,0,0,1,19.5,35Z" transform="translate(0 -32)" fill="#030303"/></g></svg>