<svg id="Capa_1" data-name="Capa 1" xmlns="http://www.w3.org/2000/svg" width="64" height="64" viewBox="0 0 64 64"><defs><style>.cls-1{fill:#41b6e6;}</style></defs><path class="cls-1" d="M32,0A32,32,0,1,0,64,32,32,32,0,0,0,32,0ZM50.11,42.67a51.4,51.4,0,0,0,1-8.54h8.49a27.62,27.62,0,0,1-2,8.54ZM13.89,21.33a51.4,51.4,0,0,0-1.05,8.54H4.35a27.62,27.62,0,0,1,2-8.54Zm31.85,0a46.37,46.37,0,0,1,1.15,8.54H34.13V21.33ZM34.13,17.07V4.58A9.81,9.81,0,0,1,37,6a18.44,18.44,0,0,1,4.9,5.57,30.29,30.29,0,0,1,2.56,5.5Zm-12.05-5.5A18.44,18.44,0,0,1,27,6a9.57,9.57,0,0,1,2.89-1.42V17.06H19.52a30.93,30.93,0,0,1,2.56-5.5Zm7.79,9.76v8.54H17.11a46.37,46.37,0,0,1,1.15-8.54ZM6.39,42.67a27.62,27.62,0,0,1-2-8.54h8.49a51.4,51.4,0,0,0,1.05,8.54Zm10.72-8.54H29.87v8.54H18.26A46.37,46.37,0,0,1,17.11,34.13Zm12.76,12.8V59.42A9.81,9.81,0,0,1,27,58a18.44,18.44,0,0,1-4.9-5.57,30.29,30.29,0,0,1-2.56-5.5Zm12.05,5.5A18.44,18.44,0,0,1,37,58a9.81,9.81,0,0,1-2.89,1.42V46.94H44.48a30.93,30.93,0,0,1-2.56,5.5Zm-7.79-9.76V34.13H46.89a46.37,46.37,0,0,1-1.15,8.54Zm17-12.8a51.4,51.4,0,0,0-1-8.54h7.5a27.34,27.34,0,0,1,2,8.54Zm4.22-12.8H49A33.83,33.83,0,0,0,44,7a27.71,27.71,0,0,1,7.65,5.42A28.12,28.12,0,0,1,55.38,17.07Zm-43-4.68A27.71,27.71,0,0,1,20,7a33.83,33.83,0,0,0-5,10.1H8.62A28.12,28.12,0,0,1,12.39,12.39ZM8.62,46.93H15A33.83,33.83,0,0,0,20,57a27.71,27.71,0,0,1-7.65-5.42A28.12,28.12,0,0,1,8.62,46.93Zm43,4.68A27.71,27.71,0,0,1,44,57a33.83,33.83,0,0,0,5-10.1h6.4A28.12,28.12,0,0,1,51.61,51.61Z"/></svg>