<svg id="Capa_1" data-name="Capa 1" xmlns="http://www.w3.org/2000/svg" width="56.66" height="64" viewBox="0 0 56.66 64"><defs><style>.cls-1{fill:#41b6e6;}</style></defs><path class="cls-1" d="M44.73,19.48A25.77,25.77,0,0,0,48,16.75a13.9,13.9,0,0,0,4-7.31,8.15,8.15,0,0,0-2-7.29A7.64,7.64,0,0,0,44.45,0a13.18,13.18,0,0,0-9,4.14c-4.2,4.2-6.66,10-8,14.16-1-4.16-2.92-9.74-6.7-13.56a10.12,10.12,0,0,0-7.08-3.07A7.46,7.46,0,0,0,8.35,3.78c-3.16,3.16-2.73,8.71,1,12.4a21,21,0,0,0,4.42,3.3H0V35.67H4.05V64H52.61V35.67h4V19.48ZM38.59,7.35a8.8,8.8,0,0,1,5.85-2.8,3.22,3.22,0,0,1,2.31.83c1.65,1.64.72,5.45-2,8.15a28.33,28.33,0,0,1-9.74,6H31.8C33,15.84,35.09,10.85,38.59,7.35ZM10.74,9.42A3.05,3.05,0,0,1,11.51,7a2.9,2.9,0,0,1,2.11-.79h0A5.62,5.62,0,0,1,17.48,8c2.14,2.14,3.9,5.55,5.09,9.85a1.54,1.54,0,0,0,.1.35l-.34-.1c-4.31-1.25-7.72-3-9.87-5.12A5.75,5.75,0,0,1,10.74,9.42ZM24.28,60H8.09V33.64H24.28Zm0-28.32H4.05V23.52H24.28ZM48.56,60H32.37V33.64H48.56Zm4-28.32H32.37V23.52H52.61Z"/></svg>