<svg id="Capa_1" data-name="Capa 1" xmlns="http://www.w3.org/2000/svg" viewBox="0 0 195 45.29"><defs><style>.cls-1{fill:#fff;}.cls-2{fill:#6e247b;}</style></defs><path class="cls-1" d="M30.05,29.71l-19.44,5s1.74,5.35,8.26,3.67a9.34,9.34,0,0,0,5.22-3.76l6.39,3C28.2,42.44,23.33,45.87,17,46.52A15,15,0,0,1,.1,32.78C-.82,23.89,5,16.63,13.85,15.72c8.45-.86,15.26,5.1,16.18,14Zm-9.76-3.14A5.72,5.72,0,0,0,9.47,29.35Z" transform="translate(0 -1.32)"/><path class="cls-1" d="M66.23,37.92a6,6,0,0,1-2.22.5c-1.4,0-1.69-1.24-1.69-2.7V16.41H52.88V34.88a6.19,6.19,0,0,1-5.34,2.86c-3.82,0-4.95-1.85-4.95-5.73V16.41H33.15v17c0,7.53,3.2,13,10.79,13,4.11,0,7.48-1.35,9.67-3.83,1.07,2.7,3.37,3.83,6.58,3.83a20.14,20.14,0,0,0,6.4-1Z" transform="translate(0 -1.32)"/><path class="cls-1" d="M70.36,45.8h9.46v-16c.34-2.9,1.65-5.48,5-5.48a14.73,14.73,0,0,1,3.29.38,18.06,18.06,0,0,1,4.61-7.23,10.9,10.9,0,0,0-5.79-1.81h0l-.5,0a7.22,7.22,0,0,0-6.69,3.57c-1.71-3.86-8-3.79-11.91-2.39v5.55c2.46,0,2.58,1.08,2.58,3.3Z" transform="translate(0 -1.32)"/><path class="cls-1" d="M125.57,45.8V21.5c9,1.33,9-5.88,18.39-5.88,10.79,0,10.79,10.65,10.79,12.73V36c0,1.46.33,2.7,1.8,2.7a6,6,0,0,0,1.91-.39l.36,7.45a21.15,21.15,0,0,1-6.1.87c-4.72,0-7.42-2.31-7.42-8.33V30.13c0-3.88-1.12-5.74-4.94-5.74A6.16,6.16,0,0,0,135,27.26V45.8Z" transform="translate(0 -1.32)"/><path class="cls-1" d="M190.66,31.13a15.49,15.49,0,1,0-7.37,13.18h0a4.12,4.12,0,0,0,.28.31,6,6,0,0,0,3.23,1.73h0l.37.07.07,0,.33,0,.12,0,.3,0h.15l.32,0h.63a16.29,16.29,0,0,0,5.91-1l-.37-7.42a6.16,6.16,0,0,1-2.17.49c-1.46,0-1.8-1.24-1.8-2.7Zm-15.49,6.73a6.74,6.74,0,1,1,6.74-6.73A6.73,6.73,0,0,1,175.17,37.86Z" transform="translate(0 -1.32)"/><path class="cls-2" d="M118.86,25.49a3.75,3.75,0,0,1-5.29,0,3.72,3.72,0,0,1-1.1-2.64v-.44H112a3.74,3.74,0,0,1-2.54-6.48,16.15,16.15,0,0,0-2.88-.27,15.49,15.49,0,1,0,13.32,7.6A3.69,3.69,0,0,1,118.86,25.49ZM106.61,37.87a6.73,6.73,0,1,1,6.73-6.73A6.73,6.73,0,0,1,106.61,37.87Z" transform="translate(0 -1.32)"/><path class="cls-2" d="M120.46,17h-2.58V14.41a1.67,1.67,0,0,0-3.33,0V17H112a1.67,1.67,0,1,0,0,3.33h2.58v2.58a1.67,1.67,0,0,0,3.33,0V20.33h2.58a1.67,1.67,0,1,0,0-3.33Z" transform="translate(0 -1.32)"/><path class="cls-2" d="M124.1,4.5a1.62,1.62,0,0,0-.44.07,1.62,1.62,0,0,0,.07-.44,1.64,1.64,0,1,0-3.28,0,1.61,1.61,0,0,0,.06.44,1.62,1.62,0,0,0-.44-.07,1.64,1.64,0,0,0,0,3.28,1.61,1.61,0,0,0,.44-.06,1.61,1.61,0,0,0-.06.44,1.64,1.64,0,1,0,3.28,0,1.62,1.62,0,0,0-.07-.44,1.61,1.61,0,0,0,.44.06,1.64,1.64,0,1,0,0-3.28Zm-3.46,2.42a1,1,0,0,1-.57.19,1,1,0,0,1,0-1.93,1,1,0,0,1,.57.19,1.66,1.66,0,0,0-.19.77A1.7,1.7,0,0,0,120.64,6.92Zm1.45-3.75a1,1,0,0,1,.77,1.53,1.66,1.66,0,0,0-.77-.2,1.7,1.7,0,0,0-.78.2,1,1,0,0,1-.19-.57A1,1,0,0,1,122.09,3.17Zm0,2a1,1,0,0,1,0,1.93,1,1,0,1,1,0-1.93Zm0,3.94a1,1,0,0,1-1-1,.93.93,0,0,1,.19-.57,1.7,1.7,0,0,0,.78.19,1.66,1.66,0,0,0,.77-.19.93.93,0,0,1,.19.57A1,1,0,0,1,122.09,9.12Zm2-2a1,1,0,0,1-.57-.19,1.7,1.7,0,0,0,.2-.78,1.66,1.66,0,0,0-.2-.77,1,1,0,0,1,1.53.77A1,1,0,0,1,124.1,7.11Z" transform="translate(0 -1.32)"/><path class="cls-2" d="M129.58,9.82a3.65,3.65,0,0,0-3.65,3.66h0A3.65,3.65,0,0,0,129.58,9.82Z" transform="translate(0 -1.32)"/><path class="cls-2" d="M133.23,13.48a3.65,3.65,0,0,0-3.65-3.66A3.66,3.66,0,0,0,133.23,13.48Z" transform="translate(0 -1.32)"/><path class="cls-2" d="M129.58,17.13a3.64,3.64,0,0,0-3.65-3.65h0A3.64,3.64,0,0,0,129.58,17.13Z" transform="translate(0 -1.32)"/><path class="cls-2" d="M129.58,17.13a3.64,3.64,0,0,0,3.65-3.65A3.65,3.65,0,0,0,129.58,17.13Z" transform="translate(0 -1.32)"/><path class="cls-2" d="M144.33,1.56a.8.8,0,0,1,0,1.14l-.88.89.88.88a.8.8,0,0,1-1.13,1.14h0l-.88-.89-.88.89a.81.81,0,0,1-1.14,0,.81.81,0,0,1,0-1.14l.88-.88-.88-.89a.81.81,0,0,1,0-1.14.81.81,0,0,1,1.14,0h0l.88.89.88-.89a.81.81,0,0,1,1.14,0" transform="translate(0 -1.32)"/></svg>