<svg xmlns="http://www.w3.org/2000/svg" width="194.549" height="46" viewBox="0 0 194.549 46"><path d="M22.744,27.85a5.7,5.7,0,0,0-6.516-3A5.823,5.823,0,0,0,11.95,30.68Zm9.733,3.186L13.089,36.119s1.73,5.43,8.235,3.724a9.348,9.348,0,0,0,5.208-3.822l6.38,3.06c-2.277,4.88-7.134,8.362-13.442,9.021-8.824.923-15.977-5.04-16.875-13.941-.911-9.023,4.894-16.392,13.719-17.315,8.436-.882,15.232,5.171,16.142,14.194Z" transform="translate(-2.5 -2.197)"/><path d="M67.8,39.353a5.871,5.871,0,0,1-2.212.506c-1.4,0-1.683-1.254-1.683-2.732v-19.6H54.484v18.74a6.151,6.151,0,0,1-5.331,2.91c-3.809,0-4.932-1.884-4.932-5.82V17.527H34.8v17.2c0,7.642,3.2,13.178,10.771,13.178,4.093,0,7.458-1.369,9.644-3.88,1.07,2.739,3.368,3.88,6.561,3.88a20.024,20.024,0,0,0,6.393-1Z" transform="translate(-1.727 -2.179)"/><path d="M71.12,47.374h9.43V31.108c.344-2.937,1.653-5.561,4.986-5.561a14.747,14.747,0,0,1,3.284.388A18.317,18.317,0,0,1,93.41,18.6a10.825,10.825,0,0,0-5.776-1.846H87.6c-.168-.007-.328-.011-.5-.011a7.172,7.172,0,0,0-6.678,3.623c-1.708-3.917-8.012-3.845-11.879-2.424v5.626c2.451,0,2.574,1.1,2.574,3.348Z" transform="translate(-0.919 -2.198)"/><path d="M124.849,47.374V22.707c8.933,1.35,8.933-5.964,18.344-5.964,10.768,0,10.767,10.8,10.767,12.92v7.71c0,1.483.336,2.74,1.795,2.74a5.711,5.711,0,0,0,1.907-.4l.365,7.566a20.838,20.838,0,0,1-6.088.877c-4.71,0-7.4-2.343-7.4-8.449v-8.25c0-3.937-1.122-5.819-4.934-5.819a6.139,6.139,0,0,0-5.328,2.907V47.374Z" transform="translate(0.429 -2.198)"/><path d="M106.105,39.317a6.838,6.838,0,1,1,6.72-6.837,6.779,6.779,0,0,1-6.72,6.837m12.227-12.578a3.689,3.689,0,0,1-5.283,0,3.806,3.806,0,0,1-1.095-2.681V23.61h-.44a3.685,3.685,0,0,1-2.64-1.116,3.834,3.834,0,0,1,.1-5.461,15.228,15.228,0,0,0-2.869-.272,15.72,15.72,0,1,0,15.448,15.719,15.848,15.848,0,0,0-2.153-8.008,3.783,3.783,0,0,1-1.068,2.267" transform="translate(-0.389 -2.197)" fill="#01b7e8"/><path d="M173.54,39.316a6.838,6.838,0,1,1,6.721-6.837,6.779,6.779,0,0,1-6.721,6.837M188.99,32.48A15.451,15.451,0,1,0,173.54,48.2a15.177,15.177,0,0,0,8.1-2.334v0c.09.107.182.21.277.31a5.938,5.938,0,0,0,3.22,1.757h0c.121.027.244.05.369.072l.072.012c.107.018.215.034.324.047l.122.016c.1.012.2.021.3.03l.153.014c.1.008.209.013.314.018.051,0,.1.006.151.007.158.006.317.009.48.009a16.148,16.148,0,0,0,5.894-1.008l-.363-7.532a6.085,6.085,0,0,1-2.167.492c-1.456,0-1.8-1.253-1.8-2.736Z" transform="translate(1.225 -2.197)"/><path d="M119.485,18.186h-2.578V15.563a1.662,1.662,0,1,0-3.324,0v2.623H111a1.691,1.691,0,0,0,0,3.381h2.578v2.624a1.662,1.662,0,1,0,3.324,0V21.567h2.578a1.691,1.691,0,0,0,0-3.381" transform="translate(0.058 -2.266)" fill="#01b7e8"/><path d="M122.928,8.383a.952.952,0,0,1-.569-.191,1.684,1.684,0,0,0,0-1.572.946.946,0,0,1,.569-.191.977.977,0,0,1,0,1.955m-2.012,2.047a.979.979,0,0,1-.771-1.557,1.607,1.607,0,0,0,1.544,0,.985.985,0,0,1,.188.58.97.97,0,0,1-.961.978m0-4a.978.978,0,1,1-.96.978.97.97,0,0,1,.96-.978m0-2.047a.979.979,0,0,1,.773,1.556,1.607,1.607,0,0,0-1.544,0,.978.978,0,0,1,.771-1.556m-1.442,3.81a.946.946,0,0,1-.569.191.978.978,0,0,1,0-1.955.943.943,0,0,1,.569.191,1.685,1.685,0,0,0,0,1.572m3.454-2.451a1.569,1.569,0,0,0-.435.062,1.715,1.715,0,0,0,.06-.443,1.637,1.637,0,1,0-3.212.443,1.576,1.576,0,0,0-.436-.062,1.665,1.665,0,0,0,0,3.33,1.614,1.614,0,0,0,.436-.061,1.64,1.64,0,1,0,3.212.443,1.709,1.709,0,0,0-.06-.443,1.613,1.613,0,0,0,.435.061,1.665,1.665,0,0,0,0-3.33" transform="translate(0.248 -2.51)" fill="#01b7e8"/><path d="M128.224,10.969a3.68,3.68,0,0,0-3.648,3.711h0a3.679,3.679,0,0,0,3.648-3.711" transform="translate(0.423 -2.336)" fill="#01b7e8"/><path d="M131.787,14.681a3.68,3.68,0,0,0-3.648-3.712,3.68,3.68,0,0,0,3.648,3.712" transform="translate(0.508 -2.336)" fill="#01b7e8"/><path d="M128.224,18.3a3.679,3.679,0,0,0-3.648-3.711h0a3.68,3.68,0,0,0,3.648,3.712" transform="translate(0.423 -2.249)" fill="#01b7e8"/><path d="M128.139,18.3a3.679,3.679,0,0,0,3.648-3.711,3.679,3.679,0,0,0-3.648,3.711" transform="translate(0.508 -2.249)" fill="#01b7e8"/><path d="M142.625,2.779a.826.826,0,0,1,0,1.158l-.884.9.882.9a.833.833,0,0,1,0,1.163.8.8,0,0,1-1.137,0v0l-.883-.9-.883.9a.794.794,0,0,1-1.137,0,.833.833,0,0,1,0-1.158l.883-.9-.883-.895a.832.832,0,0,1,0-1.158.8.8,0,0,1,1.14,0h0l.881.9.885-.9a.8.8,0,0,1,1.14,0" transform="translate(0.753 -2.538)" fill="#01b7e8"/></svg>