<svg xmlns="http://www.w3.org/2000/svg" width="60" height="60" viewBox="0 0 60 60"><path d="M48.071,52.143h0A1.012,1.012,0,0,1,47,51.071h0A1.012,1.012,0,0,1,48.071,50h0a1.012,1.012,0,0,1,1.071,1.071h0A1.012,1.012,0,0,1,48.071,52.143Z" transform="translate(3.357 3.571)" fill="#2e2e2e"/><path d="M11.071,53.143h0A1.012,1.012,0,0,1,10,52.071h0A1.012,1.012,0,0,1,11.071,51h0a1.012,1.012,0,0,1,1.071,1.071h0A1.012,1.012,0,0,1,11.071,53.143Z" transform="translate(0.714 3.643)" fill="#2e2e2e"/><path d="M49.214,32.143H47.071A1.012,1.012,0,0,1,46,31.071h0A1.012,1.012,0,0,1,47.071,30h2.143a1.012,1.012,0,0,1,1.071,1.071h0A1.012,1.012,0,0,1,49.214,32.143Z" transform="translate(3.286 2.143)" fill="#2e2e2e"/><rect width="2.143" height="10.714" transform="translate(25.714 40.714)" fill="#2e2e2e"/><rect width="2.143" height="10.714" transform="translate(32.143 40.714)" fill="#2e2e2e"/><path d="M52.857,26H44.286A4.3,4.3,0,0,0,40,30.286V53.857a4.3,4.3,0,0,0,4.286,4.286h8.571a4.3,4.3,0,0,0,4.286-4.286V30.286A4.3,4.3,0,0,0,52.857,26ZM55,53.857A2.149,2.149,0,0,1,52.857,56H44.286a2.149,2.149,0,0,1-2.143-2.143V30.286a2.149,2.149,0,0,1,2.143-2.143h8.571A2.149,2.149,0,0,1,55,30.286Z" transform="translate(2.857 1.857)" fill="#2e2e2e"/><path d="M19.286,20h-15A4.3,4.3,0,0,0,0,24.286v30a4.3,4.3,0,0,0,4.286,4.286h15a4.3,4.3,0,0,0,4.286-4.286v-30A4.3,4.3,0,0,0,19.286,20Zm2.143,34.286a2.149,2.149,0,0,1-2.143,2.143h-15a2.149,2.149,0,0,1-2.143-2.143v-30a2.149,2.149,0,0,1,2.143-2.143h15a2.149,2.149,0,0,1,2.143,2.143Z" transform="translate(0 1.429)" fill="#2e2e2e"/><rect width="23.571" height="2.143" transform="translate(0 51.429)" fill="#2e2e2e"/><path d="M32.857,48H24.286A4.3,4.3,0,0,0,20,52.286v4.286H37.143V52.286A4.3,4.3,0,0,0,32.857,48ZM35,54.429H22.143V52.286a2.149,2.149,0,0,1,2.143-2.143h8.571A2.149,2.149,0,0,1,35,52.286Z" transform="translate(1.429 3.429)" fill="#2e2e2e"/><g transform="translate(4.286)"><rect width="19.286" height="2.143" transform="translate(19.286 40.714)" fill="#2e2e2e"/><path d="M53.286,4.286V27.857h2.143V4.286C55.429,1.929,53.821,0,51.786,0H7.643C5.607,0,4,1.929,4,4.286V21.429H6.143V4.286A2.034,2.034,0,0,1,7.964,2.143h43.5A2.034,2.034,0,0,1,53.286,4.286Z" transform="translate(-4)" fill="#2e2e2e"/></g></svg>