<svg xmlns="http://www.w3.org/2000/svg" width="60" height="60" viewBox="0 0 60 60"><path d="M30,0A30,30,0,1,0,60,30,29.951,29.951,0,0,0,30,0Zm0,57.857A27.857,27.857,0,1,1,57.857,30,27.8,27.8,0,0,1,30,57.857Z" fill="#2e2e2e"/><g transform="translate(16.028 9.643)"><path d="M19.289,48.429l3.964-15.857H16.074a1.066,1.066,0,0,1-.964-1.607L27.967,9.536A1.125,1.125,0,0,1,28.931,9H41.789a1.071,1.071,0,0,1,.857,1.714l-7.5,11.143h4.5a1.071,1.071,0,0,1,.857,1.714L21.217,49.286A1.081,1.081,0,0,1,19.289,48.429ZM18,30.429h6.643a1.073,1.073,0,0,1,1.071,1.286l-3,12L37.5,24H33.217a1.071,1.071,0,0,1-.857-1.714l7.5-11.143H29.574Z" transform="translate(-14.959 -9)" fill="#2e2e2e"/></g></svg>