<svg xmlns="http://www.w3.org/2000/svg" width="60" height="60" viewBox="0 0 60 60"><path d="M30,0A30,30,0,1,0,60,30,29.951,29.951,0,0,0,30,0Zm0,57.857A27.857,27.857,0,1,1,57.857,30,27.8,27.8,0,0,1,30,57.857Z" fill="#2e2e2e"/><g transform="translate(12.857 21.643)"><path d="M24.107,28.343h3.536v6.643a12.112,12.112,0,0,1-3.107,1.607A13.472,13.472,0,0,1,21,37.129a9.43,9.43,0,0,1-4.607-1.071,7.915,7.915,0,0,1-3.214-3,8.776,8.776,0,0,1,0-8.786,7.262,7.262,0,0,1,3.214-3A9.569,9.569,0,0,1,21.107,20.2a9.685,9.685,0,0,1,3.964.75,8.56,8.56,0,0,1,3,2.143l-2.464,2.25a5.451,5.451,0,0,0-4.286-1.821,5.636,5.636,0,0,0-2.786.643,4.539,4.539,0,0,0-1.929,1.821,5.636,5.636,0,0,0-.643,2.786,5.932,5.932,0,0,0,.643,2.786,4.539,4.539,0,0,0,1.929,1.821,6.366,6.366,0,0,0,5.786-.107V28.343Z" transform="translate(-12 -20.2)" fill="#2e2e2e"/><path d="M44.164,29.729a4.271,4.271,0,0,1,.75,2.571A3.721,3.721,0,0,1,43.2,35.621,9.044,9.044,0,0,1,38.271,36.8H29.7V20.3h8.036a7.884,7.884,0,0,1,4.607,1.179,3.63,3.63,0,0,1,1.607,3.107,4.877,4.877,0,0,1-.536,2.143,5.376,5.376,0,0,1-1.607,1.5A4.736,4.736,0,0,1,44.164,29.729Zm-10.5-6.536V27.05h3.75a3.94,3.94,0,0,0,2.143-.536,1.621,1.621,0,0,0,.75-1.5,1.621,1.621,0,0,0-.75-1.5,3.94,3.94,0,0,0-2.143-.536h-3.75Zm6.75,10.286a1.621,1.621,0,0,0,.75-1.5c0-1.393-.964-2.036-3-2.036h-4.5v4.071h4.5A4.354,4.354,0,0,0,40.414,33.479Z" transform="translate(-10.736 -20.193)" fill="#2e2e2e"/></g></svg>