<svg xmlns="http://www.w3.org/2000/svg" width="60" height="60" viewBox="0 0 60 60"><path d="M50,46a4,4,0,1,0,4,4A4,4,0,0,0,50,46Zm0,6a2,2,0,1,1,2-2A2,2,0,0,1,50,52Z" transform="translate(-2 -2)" fill="#1d1d1b"/><path d="M50,38a11.776,11.776,0,0,0-3.088.426L29.184,20.7A14.038,14.038,0,0,0,9.34,3.683L20.071,14.414l-1.414,4.243-4.243,1.414L3.683,9.34A14,14,0,0,0,20.7,29.184L38.426,46.911A11.789,11.789,0,0,0,38,50,12,12,0,1,0,50,38Zm0,22A10,10,0,0,1,40,50a9.772,9.772,0,0,1,.117-1.441c.05-.341.119-.674.2-1,.014-.054.025-.11.04-.164a9.845,9.845,0,0,1,.338-1.039L39.18,44.837,22.66,28.317l-1.5-1.5c-.355.17-.723.318-1.1.454-.179.065-.364.117-.548.174A11.793,11.793,0,0,1,16,28,11.962,11.962,0,0,1,4.418,12.9l10,10,5.657-2.828L22.9,14.414l-10-10A11.962,11.962,0,0,1,28,16a11.792,11.792,0,0,1-.552,3.518c-.056.184-.109.37-.174.55-.136.373-.284.74-.454,1.095l1.5,1.5,16.52,16.52L46.353,40.7a9.845,9.845,0,0,1,1.039-.338c.054-.015.11-.026.165-.04a10.034,10.034,0,0,1,1-.2A9.784,9.784,0,0,1,50,40a10,10,0,0,1,0,20Z" transform="translate(-2 -2)" fill="#1d1d1b"/></svg>