<svg xmlns="http://www.w3.org/2000/svg" width="60" height="60" viewBox="0 0 60 60"><g transform="translate(-2 -2)"><path d="M48,25.5a1.5,1.5,0,0,1-1.061-.439,22.847,22.847,0,0,0-29.881,0,1.5,1.5,0,0,1-2.119-2.124A25.317,25.317,0,0,1,32,16.5a25.314,25.314,0,0,1,17.061,6.439A1.5,1.5,0,0,1,48,25.5Z" fill="#2e2e2e"/></g><g transform="translate(-2 -2)"><path d="M44,31.5a1.5,1.5,0,0,1-1.061-.439C42.8,30.921,39.212,27.5,32,27.5s-10.8,3.421-10.945,3.567a1.5,1.5,0,0,1-2.116-2.128C19.121,28.758,23.477,24.5,32,24.5s12.88,4.258,13.061,4.439A1.5,1.5,0,0,1,44,31.5Z" fill="#2e2e2e"/></g><g transform="translate(-2 -2)"><path d="M38,37.5a1.5,1.5,0,0,1-1.061-.439A7.367,7.367,0,0,0,32,35.5a7.363,7.363,0,0,0-4.952,1.573,1.51,1.51,0,0,1-2.115-.032,1.493,1.493,0,0,1,.006-2.1A10.271,10.271,0,0,1,32,32.5a10.274,10.274,0,0,1,7.061,2.439A1.5,1.5,0,0,1,38,37.5Z" fill="#2e2e2e"/></g><circle cx="1" cy="1" r="1" transform="translate(11 49)" fill="#2e2e2e"/><rect width="28" height="2" rx="1" transform="translate(16 49)" fill="#2e2e2e"/><circle cx="1" cy="1" r="1" transform="translate(47 49)" fill="#2e2e2e"/><path d="M52,42H12a10,10,0,0,0,0,20H52a10,10,0,0,0,0-20Zm0,18H12a8,8,0,0,1,0-16H52a8,8,0,0,1,0,16Z" transform="translate(-2 -2)" fill="#2e2e2e"/><rect width="2" height="38" rx="1" transform="translate(8)" fill="#2e2e2e"/><rect width="2" height="38" rx="1" transform="translate(50)" fill="#2e2e2e"/></svg>