<svg xmlns="http://www.w3.org/2000/svg" width="60" height="59.898" viewBox="0 0 60 59.898"><g transform="translate(43.279 43.482)"><path d="M43.005,48.788a.808.808,0,0,1,1.015-.2,3.287,3.287,0,0,0,3.248-1.218,3.622,3.622,0,0,0,1.218-3.248,1.013,1.013,0,0,1,1.929-.609,5.463,5.463,0,0,1-1.726,5.38,5.721,5.721,0,0,1-5.38,1.726A1.016,1.016,0,0,1,42.7,49.3,1.085,1.085,0,0,1,43.005,48.788Z" transform="translate(-42.637 -42.837)" fill="#2e2e2e"/></g><g transform="translate(41.959 41.857)"><path d="M41.6,53.075a.808.808,0,0,1,1.015-.2c.1,0,3.756,1.117,7.613-2.639,3.857-3.857,2.639-7.511,2.639-7.613A1.028,1.028,0,1,1,54.8,41.91c.1.2,1.624,4.974-3.147,9.643S42.213,54.7,42.01,54.7a1.016,1.016,0,0,1-.609-1.32A1.46,1.46,0,0,1,41.6,53.075Z" transform="translate(-41.337 -41.237)" fill="#2e2e2e"/></g><g transform="translate(40.586 40.481)"><path d="M40.2,57.46a1.417,1.417,0,0,1,.914-.3A13.887,13.887,0,0,0,53.094,53.1a14.432,14.432,0,0,0,4.06-11.977,1.035,1.035,0,1,1,2.03-.406A16.185,16.185,0,0,1,40.812,59.084,1.053,1.053,0,0,1,40,57.866.405.405,0,0,1,40.2,57.46Z" transform="translate(-39.985 -39.881)" fill="#2e2e2e"/></g><path d="M10.658,50.853,13.5,48.011l1.421-1.421,2.842-2.842,1.421-1.421,2.842-2.842a1.962,1.962,0,0,0,0-2.842L19.286,33.6l1.421-1.421L24.97,36.44l1.421,1.421,1.421,1.421a1.962,1.962,0,0,0,2.842,0l1.421-1.421L33.9,39.688C29.842,47.1,36.44,53.7,36.44,53.7l7.207-7.207a2.01,2.01,0,0,0,2.842-2.842L53.7,36.44s-6.6-6.6-14.008-2.538l-1.827-1.827,1.421-1.421a1.962,1.962,0,0,0,0-2.842l-1.32-1.421L36.541,24.97l-4.263-4.263L33.7,19.286l2.842,2.842a1.962,1.962,0,0,0,2.842,0l2.842-2.842,1.421-1.421,2.842-2.842L47.91,13.6l2.842-2.842a1.962,1.962,0,0,0,0-2.842L43.647.609a1.962,1.962,0,0,0-2.842,0L37.962,3.451,36.541,4.872,33.7,7.714,32.278,9.135l-2.842,2.842a1.962,1.962,0,0,0,0,2.842l2.842,2.842-1.523,1.624L24.97,13.5l-1.421-1.421a4.044,4.044,0,0,0-5.786,0l-1.421-1.421a1.962,1.962,0,0,0-2.842,0L10.658,13.5a1.962,1.962,0,0,0,0,2.842l1.421,1.421a4.044,4.044,0,0,0,0,5.786L13.5,24.97l5.786,5.786-1.421,1.421-2.842-2.842a1.962,1.962,0,0,0-2.842,0L9.338,32.177,7.917,33.6,4.872,36.541,3.451,37.962.609,40.8a1.962,1.962,0,0,0,0,2.842l7.207,7.207A1.962,1.962,0,0,0,10.658,50.853ZM42.226,2.03l7.207,7.207L46.59,12.079,39.383,4.872ZM37.962,6.293,45.169,13.5l-2.842,2.842L35.12,9.135ZM30.756,13.5,33.6,10.658,40.8,17.865l-2.842,2.842ZM50.143,37.15l-4.974,4.974-2.842,2.842L37.353,49.94s-4.872-6.192.406-11.876l.711-.711C43.951,32.38,50.143,37.15,50.143,37.15Zm-12.18-2.132L35.12,37.861,33.7,36.44,36.541,33.6Zm0-5.684-1.421,1.421-5.786,5.786-1.421,1.421-1.421-1.421,8.628-8.628ZM12.079,14.921l2.842-2.842L16.342,13.5,13.5,16.342ZM13.5,19.286l1.421-1.421,2.842-2.842L19.184,13.6a1.962,1.962,0,0,1,2.842,0L13.4,22.229A2.182,2.182,0,0,1,13.5,19.286Zm10.049-4.365,11.47,11.47-8.628,8.628-11.47-11.47ZM13.5,30.756l7.207,7.207L17.865,40.8,10.658,33.6ZM9.237,35.019l7.207,7.207L13.6,45.068,6.395,37.861ZM2.03,42.226l2.842-2.842,7.207,7.207L9.237,49.432Z" fill="#2e2e2e"/></svg>