<svg xmlns="http://www.w3.org/2000/svg" width="64" height="64" viewBox="0 0 64 64"><path d="M52.571,61.714a1.45,1.45,0,0,0-.114-.686L27.314,7.086a1.377,1.377,0,0,0-.571-.571h0c-.114,0-.229-.114-.343-.114h-.229a.42.42,0,0,0-.343.114h0a1.377,1.377,0,0,0-.571.571L.114,60.914a1.945,1.945,0,0,0-.114.8v.229a1.08,1.08,0,0,0,1.143,1.143H30.857a1.143,1.143,0,0,0,0-2.286H2.743L18.057,27.886l8.686,8.686c.114.114.229.229.343.229s.229.114.457.114A.687.687,0,0,0,28,36.8c.114,0,.229-.114.343-.229L35.314,29.6,49.829,60.8H40a1.143,1.143,0,0,0,0,2.286H51.429a1.08,1.08,0,0,0,1.143-1.143ZM27.543,34.171l-8.457-8.457,7.2-15.429,8,17.143Z" transform="translate(0 0.914)" fill="#41b6e6"/><path d="M58.786,59.086l-12-25.714-4.457-9.6a.246.246,0,0,0-.229-.229h0c-.114-.114-.229-.229-.343-.229h0c-.114,0-.229-.114-.343-.114h-.229a.42.42,0,0,0-.343.114h0c-.114.114-.229.114-.343.229h0l-.229.229L35.7,33.6l1.257,2.743.914-1.943,3.2,3.2c.114.114.229.229.343.229s.229.114.457.114a.687.687,0,0,0,.457-.114c.114,0,.229-.114.343-.229l2.514-2.514L55.929,58.4H50.9a1.143,1.143,0,1,0,0,2.286h6.857a.42.42,0,0,0,.343-.114h.114a.246.246,0,0,0,.229-.229h0A.947.947,0,0,0,58.786,59.086ZM41.871,35.2,38.9,32.229l2.4-5.257,2.743,5.943Z" transform="translate(5.1 3.314)" fill="#41b6e6"/><path d="M52.571,4.571a3.861,3.861,0,0,0-2.286.686,5.734,5.734,0,0,0-11.429,0,3.861,3.861,0,0,0-2.286-.686,4.571,4.571,0,0,0,0,9.143h16a4.571,4.571,0,0,0,0-9.143Zm0,6.857h-16a2.286,2.286,0,0,1,0-4.571h4.686c0-.343-.114-.686-.114-1.143a3.43,3.43,0,1,1,6.629,1.143h4.8a2.286,2.286,0,0,1,0,4.571Z" transform="translate(4.571)" fill="#41b6e6"/><path d="M8.782,51.982h0A1.134,1.134,0,0,1,8.211,50.5l6.743-14.514a1.134,1.134,0,0,1,1.486-.571h0a1.134,1.134,0,0,1,.571,1.486L10.268,51.411A1.134,1.134,0,0,1,8.782,51.982Z" transform="translate(1.16 5.046)" fill="#41b6e6"/></svg>