<svg id="Capa_1" data-name="Capa 1" xmlns="http://www.w3.org/2000/svg" width="56" height="64" viewBox="0 0 56 64"><defs><style>.cls-1{fill:#41b6e6;}</style></defs><path class="cls-1" d="M41.56,32C50.17,26.54,56,16.05,56,4a35.23,35.23,0,0,0-.22-4H.22A35.23,35.23,0,0,0,0,4C0,16.05,5.83,26.54,14.44,32,5.83,37.46,0,48,0,60a35.23,35.23,0,0,0,.22,4H55.78A35.23,35.23,0,0,0,56,60C56,48,50.17,37.46,41.56,32ZM6,60c0-11.68,5-21.59,14-24.86V28.86C11,25.59,6,15.68,6,4H50c0,11.68-5,21.59-14,24.86v6.28C45,38.41,50,48.32,50,60ZM34.73,41.85C30.25,39.31,30,36,30,34V30c0-2,.24-5.31,4.74-7.85A17.51,17.51,0,0,0,40.8,16H15.2a17.4,17.4,0,0,0,6.08,6.15C25.75,24.69,26,28,26,30v4c0,2-.24,5.31-4.73,7.85S13.35,49.71,12.32,56H43.68C42.66,49.71,39.27,44.48,34.73,41.85Z"/></svg>