<svg xmlns="http://www.w3.org/2000/svg" width="64" height="64" viewBox="0 0 64 64"><g transform="translate(13.334 15.467)"><path d="M50.233,26.1a1.6,1.6,0,0,1-1.132-.468,24.371,24.371,0,0,0-31.873,0,1.6,1.6,0,0,1-2.26-2.266,27,27,0,0,1,18.2-6.868,27,27,0,0,1,18.2,6.868A1.6,1.6,0,0,1,50.233,26.1Z" transform="translate(-14.501 -16.5)" fill="#41b6e6"/></g><g transform="translate(17.602 24)"><path d="M45.7,31.967a1.6,1.6,0,0,1-1.132-.468c-.153-.149-3.975-3.8-11.668-3.8s-11.516,3.649-11.675,3.8a1.6,1.6,0,0,1-2.257-2.27c.194-.193,4.841-4.735,13.932-4.735s13.739,4.542,13.932,4.735A1.6,1.6,0,0,1,45.7,31.967Z" transform="translate(-18.502 -24.5)" fill="#41b6e6"/></g><g transform="translate(24.003 32.533)"><path d="M38.9,37.833a1.6,1.6,0,0,1-1.132-.468A7.859,7.859,0,0,0,32.5,35.7a7.854,7.854,0,0,0-5.282,1.678,1.61,1.61,0,0,1-2.256-.034,1.592,1.592,0,0,1,.006-2.242A10.956,10.956,0,0,1,32.5,32.5a10.959,10.959,0,0,1,7.532,2.6A1.6,1.6,0,0,1,38.9,37.833Z" transform="translate(-24.503 -32.5)" fill="#41b6e6"/></g><circle cx="1.067" cy="1.067" r="1.067" transform="translate(11.733 52.267)" fill="#41b6e6"/><rect width="29.867" height="2.133" rx="1" transform="translate(17.067 52.267)" fill="#41b6e6"/><circle cx="1.067" cy="1.067" r="1.067" transform="translate(50.133 52.267)" fill="#41b6e6"/><path d="M55.333,42H12.667a10.667,10.667,0,1,0,0,21.333H55.333a10.667,10.667,0,0,0,0-21.333Zm0,19.2H12.667a8.533,8.533,0,0,1,0-17.067H55.333a8.533,8.533,0,0,1,0,17.067Z" transform="translate(-2 0.667)" fill="#41b6e6"/><rect width="2.133" height="40.533" rx="1" transform="translate(8.533)" fill="#41b6e6"/><rect width="2.133" height="40.533" rx="1" transform="translate(53.333)" fill="#41b6e6"/></svg>