<svg xmlns="http://www.w3.org/2000/svg" width="64" height="63.892" viewBox="0 0 64 63.892"><g transform="translate(46.164 46.38)"><path d="M43.03,49.185a.862.862,0,0,1,1.083-.217,3.506,3.506,0,0,0,3.465-1.3,3.864,3.864,0,0,0,1.3-3.465,1.081,1.081,0,0,1,2.057-.65,5.827,5.827,0,0,1-1.841,5.738,6.1,6.1,0,0,1-5.738,1.841,1.083,1.083,0,0,1-.65-1.408A1.157,1.157,0,0,1,43.03,49.185Z" transform="translate(-42.637 -42.837)" fill="#41b6e6"/></g><g transform="translate(44.756 44.648)"><path d="M41.622,53.865a.862.862,0,0,1,1.083-.217c.108,0,4.006,1.191,8.12-2.815,4.114-4.114,2.815-8.012,2.815-8.12a1.1,1.1,0,0,1,2.057-.758c.108.217,1.732,5.305-3.356,10.286S42.271,55.6,42.055,55.6a1.083,1.083,0,0,1-.65-1.408A1.558,1.558,0,0,1,41.622,53.865Z" transform="translate(-41.337 -41.237)" fill="#41b6e6"/></g><g transform="translate(43.292 43.179)"><path d="M40.218,58.632a1.511,1.511,0,0,1,.974-.325,14.813,14.813,0,0,0,12.776-4.331A15.394,15.394,0,0,0,58.3,41.2a1.1,1.1,0,0,1,2.165-.433,17.264,17.264,0,0,1-19.6,19.6,1.123,1.123,0,0,1-.866-1.3A.432.432,0,0,1,40.218,58.632Z" transform="translate(-39.985 -39.881)" fill="#41b6e6"/></g><path d="M11.368,54.244,14.4,51.212,15.916,49.7l3.032-3.032,1.516-1.516,3.032-3.032a2.093,2.093,0,0,0,0-3.032l-2.923-3.248,1.516-1.516,4.547,4.547,1.516,1.516L29.666,41.9a2.093,2.093,0,0,0,3.032,0l1.516-1.516,1.949,1.949c-4.331,7.9,2.707,14.941,2.707,14.941l7.687-7.687a2.144,2.144,0,1,0,3.032-3.032l7.687-7.687s-7.038-7.038-14.941-2.707l-1.949-1.949L41.9,32.7a2.093,2.093,0,0,0,0-3.032L40.493,28.15l-1.516-1.516L34.43,22.087l1.516-1.516L38.977,23.6a2.093,2.093,0,0,0,3.032,0l3.032-3.032,1.516-1.516,3.032-3.032L51.1,14.508l3.032-3.032a2.093,2.093,0,0,0,0-3.032L46.556.65a2.093,2.093,0,0,0-3.032,0L40.493,3.681,38.977,5.2,35.946,8.229,34.43,9.744,31.4,12.776a2.093,2.093,0,0,0,0,3.032l3.032,3.032-1.624,1.732L26.635,14.4l-1.516-1.516a4.314,4.314,0,0,0-6.171,0l-1.516-1.516a2.093,2.093,0,0,0-3.032,0L11.368,14.4a2.093,2.093,0,0,0,0,3.032l1.516,1.516a4.314,4.314,0,0,0,0,6.171L14.4,26.635l6.171,6.171-1.516,1.516L16.024,31.29a2.093,2.093,0,0,0-3.032,0L9.961,34.322,8.445,35.838,5.2,38.977,3.681,40.493.65,43.525a2.093,2.093,0,0,0,0,3.032l7.687,7.687A2.092,2.092,0,0,0,11.368,54.244ZM45.041,2.165l7.687,7.687L49.7,12.884,42.009,5.2ZM40.493,6.713,48.18,14.4l-3.032,3.032L37.462,9.744ZM32.806,14.4l3.032-3.032,7.687,7.687-3.032,3.032Zm20.68,25.227L48.18,44.932l-3.032,3.032-5.305,5.305s-5.2-6.6.433-12.668l.758-.758C46.881,34.538,53.486,39.627,53.486,39.627ZM40.493,37.353l-3.032,3.032-1.516-1.516,3.032-3.032Zm0-6.063-1.516,1.516-6.171,6.171L31.29,40.493l-1.516-1.516,9.2-9.2ZM12.884,15.916l3.032-3.032L17.432,14.4,14.4,17.432ZM14.4,20.571l1.516-1.516,3.032-3.032,1.516-1.516a2.093,2.093,0,0,1,3.032,0l-9.2,9.2A2.327,2.327,0,0,1,14.4,20.571Zm10.719-4.656L37.353,28.15l-9.2,9.2L15.916,25.119ZM14.4,32.806l7.687,7.687-3.032,3.032-7.687-7.687ZM9.853,37.353l7.687,7.687-3.032,3.032L6.821,40.385ZM2.165,45.041,5.2,42.009,12.884,49.7,9.853,52.728Z" transform="translate(0 0)" fill="#41b6e6"/></svg>