<svg id="Capa_1" data-name="Capa 1" xmlns="http://www.w3.org/2000/svg" xmlns:xlink="http://www.w3.org/1999/xlink" width="376.39" height="330" viewBox="0 0 376.39 330"><defs><style>.cls-1{fill:none;}.cls-2{fill:#fff;}.cls-3{fill:#40b9e8;}.cls-4{fill:#6e247b;}.cls-5{clip-path:url(#clip-path);}.cls-6{fill:url(#Degradado_sin_nombre_5);}.cls-7{clip-path:url(#clip-path-2);}.cls-8{fill:url(#Degradado_sin_nombre_5-2);}</style><clipPath id="clip-path"><rect class="cls-1" x="57.27" y="238.52" width="262.52" height="81.93"/></clipPath><linearGradient id="Degradado_sin_nombre_5" x1="189.16" y1="11.57" x2="189.16" y2="337.69" gradientUnits="userSpaceOnUse"><stop offset="0" stop-color="#40b9e8"/><stop offset="1" stop-color="#6e247b"/></linearGradient><clipPath id="clip-path-2"><rect class="cls-1" x="56.04" y="37.05" width="264.97" height="121.77"/></clipPath><linearGradient id="Degradado_sin_nombre_5-2" x1="189.16" y1="22.08" x2="189.16" y2="326.97" xlink:href="#Degradado_sin_nombre_5"/></defs><path class="cls-2" d="M364.77,148h-4.4A173,173,0,0,0,18,148H11.63A11.63,11.63,0,0,0,0,159.6v78.13a11.63,11.63,0,0,0,11.63,11.63H52a157,157,0,0,0,274.4,0h38.41a11.63,11.63,0,0,0,11.62-11.63V159.6A11.62,11.62,0,0,0,364.77,148Z"/><rect class="cls-3" x="154.41" y="166.3" width="3.39" height="65.32"/><path class="cls-4" d="M187.18,195.79l-1.9-4.75h-8.57l-1.91,4.75H170l8.83-22h4.42l8.84,22ZM181,180.34l-2.58,6.39h5.12Z"/><path class="cls-4" d="M199.05,178.18a2,2,0,0,0-.66,1.55,1.78,1.78,0,0,0,.8,1.52,14.26,14.26,0,0,0,3.72,1.34,10.1,10.1,0,0,1,4.52,2.31,6,6,0,0,1,1.61,4.5,6.15,6.15,0,0,1-2.06,4.8,7.9,7.9,0,0,1-5.43,1.84,12.11,12.11,0,0,1-8.75-3.87l2.72-3.59q3.3,3.12,6.12,3.12a3,3,0,0,0,2-.59,2,2,0,0,0,0-3.14,9.6,9.6,0,0,0-3-1.18,12.59,12.59,0,0,1-5.22-2.38,6.89,6.89,0,0,1,.44-9.42,8,8,0,0,1,5.22-1.7,11.65,11.65,0,0,1,4.1.76,10.72,10.72,0,0,1,3.57,2.14l-2.31,3.58a8.68,8.68,0,0,0-5.5-2.17A2.63,2.63,0,0,0,199.05,178.18Z"/><path class="cls-4" d="M212.93,173.8h4.56v22h-4.56Z"/><path class="cls-4" d="M227.31,178.18a2,2,0,0,0-.66,1.55,1.76,1.76,0,0,0,.81,1.52,14,14,0,0,0,3.71,1.34,10.1,10.1,0,0,1,4.52,2.31,5.92,5.92,0,0,1,1.61,4.5,6.12,6.12,0,0,1-2.06,4.8,7.87,7.87,0,0,1-5.43,1.84,12.13,12.13,0,0,1-8.75-3.87l2.73-3.59q3.3,3.12,6.11,3.12a3.05,3.05,0,0,0,2-.59,1.92,1.92,0,0,0,.71-1.57,1.87,1.87,0,0,0-.76-1.57,9.51,9.51,0,0,0-3-1.18,12.59,12.59,0,0,1-5.22-2.38,5.79,5.79,0,0,1-1.66-4.59A5.87,5.87,0,0,1,224,175a8.06,8.06,0,0,1,5.23-1.7,11.6,11.6,0,0,1,4.09.76,10.53,10.53,0,0,1,3.57,2.14l-2.31,3.58a8.66,8.66,0,0,0-5.5-2.17A2.67,2.67,0,0,0,227.31,178.18Z"/><path class="cls-4" d="M249.68,178v17.75h-4.56V178h-5.8V173.8h16.15V178Z"/><path class="cls-4" d="M273.56,173.8v4.37H263.37v4.53h9.16v4.18h-9.16v4.56h10.51v4.35H258.81v-22Z"/><path class="cls-4" d="M292.25,173.8h4.57v22h-4.57L282.51,182v13.78H278v-22h4.27l10,14.15Z"/><path class="cls-4" d="M311.24,191.44a6.58,6.58,0,0,0,5.51-2.86l2.92,3.24a10.39,10.39,0,0,1-8.21,4.22,10.28,10.28,0,0,1-7.78-3.21,12.25,12.25,0,0,1,.06-16.27,10.13,10.13,0,0,1,7.62-3.27,10.52,10.52,0,0,1,8.43,4.12L317,180.87a6.49,6.49,0,0,0-5.38-2.89,6,6,0,0,0-4.41,1.81,6.53,6.53,0,0,0-1.83,4.87,7,7,0,0,0,1.73,4.93A5.49,5.49,0,0,0,311.24,191.44Z"/><path class="cls-4" d="M323.27,173.8h4.57v22h-4.57Z"/><path class="cls-4" d="M347.44,195.79l-1.9-4.75H337l-1.9,4.75h-4.85l8.83-22h4.42l8.84,22Zm-6.17-15.45-2.58,6.39h5.12Z"/><path class="cls-4" d="M186.6,221.53a10.59,10.59,0,0,1-15.27,0,12.13,12.13,0,0,1,0-16.2,10.57,10.57,0,0,1,15.27,0,12.1,12.1,0,0,1,0,16.2Zm-1.55-8.09a7.53,7.53,0,0,0-1.75-5,5.53,5.53,0,0,0-8.63,0,7.54,7.54,0,0,0-1.76,5,7.45,7.45,0,0,0,1.76,5,5.55,5.55,0,0,0,8.63,0A7.44,7.44,0,0,0,185.05,213.44Z"/><path class="cls-4" d="M207.88,202.57h4.56v22h-4.56l-9.75-13.78v13.78h-4.56v-22h4.27l10,14.16Z"/><path class="cls-4" d="M217.47,224.56v-22H222v17.62h8.72v4.37Z"/><path class="cls-4" d="M234.09,202.57h4.57v22h-4.57Z"/><path class="cls-4" d="M258,202.57h4.56v22H258l-9.74-13.78v13.78h-4.57v-22H248l10,14.16Z"/><path class="cls-4" d="M282.34,202.57V207H272.16v4.53h9.16v4.18h-9.16v4.56h10.51v4.34H267.6v-22Z"/><path class="cls-3" d="M51.4,194.64A8.68,8.68,0,0,0,53,189.86,5.52,5.52,0,0,0,51.62,186,4.66,4.66,0,0,0,48,184.47q-4,0-7.65,6.18l-7.65-4.87a24.66,24.66,0,0,1,6.58-7.56,15.25,15.25,0,0,1,9.12-2.57,14.1,14.1,0,0,1,9.73,3.78q4.19,3.8,4.19,10.3a14.66,14.66,0,0,1-1.68,6.81,44.36,44.36,0,0,1-6.22,8.33l-7.71,8.62h16.9v9.21H33.44v-7.63L46,201.25A57.56,57.56,0,0,0,51.4,194.64Z"/><path class="cls-3" d="M86.32,202.83v-8H95.5v8h4.84v8.88H95.5v11H86.32v-11H69.12v-7.83L84.36,176.7H94.77L80.26,202.83Z"/><path class="cls-3" d="M107.7,188.44v8.72h-4.2V174.84h4.2v7.94A5.71,5.71,0,0,1,112,180.7a5.16,5.16,0,0,1,4,1.81,6.94,6.94,0,0,1,1.63,4.81v9.84h-4.2v-8.84q0-3.73-2.55-3.73a2.93,2.93,0,0,0-2.19,1A4,4,0,0,0,107.7,188.44Z"/><path class="cls-3" d="M129.3,185a3.11,3.11,0,0,0-2.8,1.42,7,7,0,0,0-.92,3.78v7h-4.2V181h4.2v2.13a7.15,7.15,0,0,1,2-1.68,5.21,5.21,0,0,1,2.47-.73l0,4.25Z"/><path class="cls-3" d="M144.1,192.12a4.85,4.85,0,0,1-1.64,3.84,6,6,0,0,1-4.15,1.44,10.46,10.46,0,0,1-3.5-.65,10,10,0,0,1-3.27-1.91l1.85-2.82a7.69,7.69,0,0,0,5,1.95,2.17,2.17,0,0,0,1.29-.34,1.1,1.1,0,0,0,.48-.92,1.36,1.36,0,0,0-.66-1.06,7.19,7.19,0,0,0-1.9-.9c-.83-.28-1.47-.52-1.91-.72a10.4,10.4,0,0,1-1.49-.87,3.81,3.81,0,0,1-1.71-3.39,4.55,4.55,0,0,1,1.68-3.65,6.51,6.51,0,0,1,4.34-1.42,9,9,0,0,1,5.31,1.93l-1.57,3a6.56,6.56,0,0,0-3.9-1.45c-1.3,0-1.94.38-1.94,1.15a1.1,1.1,0,0,0,.61,1,12,12,0,0,0,2,.84c1,.32,1.63.57,2,.74a9.62,9.62,0,0,1,1.44.8A3.75,3.75,0,0,1,144.1,192.12Z"/><g class="cls-5"><circle class="cls-6" cx="189.16" cy="173.01" r="141.03"/><path class="cls-2" d="M154.78,260.06h3.84v6.07a8.94,8.94,0,0,1-7.05,2.84,8.74,8.74,0,0,1-6.33-2.49,9.06,9.06,0,0,1,0-12.67,8.71,8.71,0,0,1,6.29-2.54,9.34,9.34,0,0,1,6.41,2.42l-2,2.87a7.68,7.68,0,0,0-2.11-1.39,5.8,5.8,0,0,0-2.1-.38,5,5,0,0,0-3.67,1.49,5.88,5.88,0,0,0-.06,7.78,4.62,4.62,0,0,0,3.41,1.46,6.51,6.51,0,0,0,3.31-.76Z"/><path class="cls-2" d="M175.3,257.34c0,2.74-1.09,4.52-3.26,5.32l4.34,6.12h-4.7l-3.8-5.46h-2.64v5.46h-3.82V251.66h6.49c2.66,0,4.55.45,5.69,1.35A5.2,5.2,0,0,1,175.3,257.34Zm-4.6,2a2.58,2.58,0,0,0,.71-2,2.15,2.15,0,0,0-.74-1.89,4.61,4.61,0,0,0-2.57-.52h-2.86V260H168A4.1,4.1,0,0,0,170.7,259.37Z"/><path class="cls-2" d="M190.8,268.78l-1.59-3.7H182l-1.59,3.7h-4.06l7.39-17.12h3.7l7.4,17.12Zm-5.17-12-2.15,5h4.28Z"/><path class="cls-2" d="M202.24,255v13.81h-3.82V255h-4.85v-3.31h13.52V255Z"/><path class="cls-2" d="M209.27,251.66h3.82v17.12h-3.82Z"/><path class="cls-2" d="M220.69,255.08a1.46,1.46,0,0,0-.55,1.2,1.34,1.34,0,0,0,.67,1.18,12.15,12.15,0,0,0,3.11,1,8.66,8.66,0,0,1,3.78,1.8,4.45,4.45,0,0,1,1.35,3.51,4.59,4.59,0,0,1-1.73,3.73,6.84,6.84,0,0,1-4.54,1.43,10.5,10.5,0,0,1-7.32-3l2.28-2.79c1.84,1.62,3.55,2.42,5.12,2.42a2.69,2.69,0,0,0,1.65-.45,1.45,1.45,0,0,0,.6-1.22,1.42,1.42,0,0,0-.64-1.23,8.24,8.24,0,0,0-2.52-.92,10.9,10.9,0,0,1-4.37-1.85,4.35,4.35,0,0,1-1.38-3.57,4.43,4.43,0,0,1,1.75-3.76,7,7,0,0,1,4.37-1.32,10.36,10.36,0,0,1,3.43.59,9.11,9.11,0,0,1,3,1.66l-1.93,2.79a7.59,7.59,0,0,0-4.61-1.69A2.26,2.26,0,0,0,220.69,255.08Z"/><path class="cls-2" d="M108.91,256.61a4.28,4.28,0,0,1-1.61,3.11,4.05,4.05,0,0,1-3.2,1.34,5.53,5.53,0,0,1-3.26-2l-1-1.09-2.45,2.29-1.69-1.82,8.77-8.19,2.69,2.88A5.43,5.43,0,0,1,108.91,256.61Zm-4.7,1.89a2.42,2.42,0,0,0,1.46-.76,1.72,1.72,0,0,0,.68-1.43,3,3,0,0,0-.92-1.62l-1-1-3,2.75,1.14,1.23A2.18,2.18,0,0,0,104.21,258.5Z"/><path class="cls-2" d="M109.09,271.57l1-2.62-3.5-3.11-2.5,1.25-2-1.76,11.57-5.77,1.81,1.6-4.37,12.17Zm3.08-8.54-3.36,1.68,2.08,1.85Z"/><path class="cls-2" d="M124.73,273.36q-1.7,2.34-3.91,1.77l-.23,5.13-2.48-1.8.24-4.55-1.39-1L114.71,276l-2-1.46,7-9.71,3.43,2.48a5.8,5.8,0,0,1,2.45,2.95A3.78,3.78,0,0,1,124.73,273.36Zm-3.27-.61a1.89,1.89,0,0,0,1.21-.87,1.57,1.57,0,0,0,.39-1.36,2.82,2.82,0,0,0-1.14-1.28l-1.51-1.1L118.32,271l1.47,1.07A2.54,2.54,0,0,0,121.46,272.75Z"/><path class="cls-2" d="M129.59,285.66l.42-2.76-4-2.37-2.21,1.7-2.28-1.34L131.73,273l2.08,1.22L131.88,287Zm1.38-9L128,279l2.41,1.42Z"/><path class="cls-2" d="M143.34,289.65a3.59,3.59,0,0,0,3.37-.26l.78,2.25a5.73,5.73,0,0,1-8.24-2.91,6.12,6.12,0,0,1,.19-4.72,6.23,6.23,0,0,1,3.31-3.43,5.52,5.52,0,0,1,4.52,0,5.74,5.74,0,0,1,3.36,3.87l-2.17,1.13a3.56,3.56,0,0,0-2.08-2.6,3.27,3.27,0,0,0-2.6,0,3.56,3.56,0,0,0-2,2.06,3.79,3.79,0,0,0-.19,2.84A3,3,0,0,0,143.34,289.65Z"/><path class="cls-2" d="M149.09,294.46l3.74-11.41,2.36.78-3,9.14,4.53,1.48-.75,2.26Z"/><path class="cls-2" d="M161.21,285.66l2.41.63-3,11.61-2.41-.63Z"/><path class="cls-2" d="M173.87,288.4l-.44,2.35-5.46-1-.46,2.43,4.91.92-.43,2.25-4.91-.93-.46,2.44,5.63,1.07-.44,2.33-8.08-1.53L166,286.91Z"/><path class="cls-2" d="M183.52,289.33l2.48.2-.95,12-2.49-.19-4.7-7.92-.6,7.49-2.48-.2.95-12,2.33.19L182.9,297Z"/><path class="cls-2" d="M193,291.67l.3,9.68-2.49.07-.29-9.67-3.16.09-.08-2.31,8.81-.27.07,2.31Z"/><path class="cls-2" d="M205.47,288.1l.3,2.37-5.51.7.31,2.45,5-.63.29,2.27-5,.63.31,2.47,5.69-.73.3,2.35L199,301l-1.51-11.9Z"/><path class="cls-2" d="M210.46,289.51a1.08,1.08,0,0,0-.17.9,1,1,0,0,0,.61.71,7.49,7.49,0,0,0,2.14.27,5.48,5.48,0,0,1,2.68.69,3.26,3.26,0,0,1,1.4,2.21,3.35,3.35,0,0,1-.53,2.8,4.24,4.24,0,0,1-2.67,1.62,6.62,6.62,0,0,1-5.12-1l1-2.24a5.06,5.06,0,0,0,3.63.93,1.67,1.67,0,0,0,1-.54,1.05,1.05,0,0,0,.2-.93,1,1,0,0,0-.6-.74,4.93,4.93,0,0,0-1.74-.27,7.07,7.07,0,0,1-3.07-.64,3.75,3.75,0,0,1-.89-5.07,4.4,4.4,0,0,1,2.58-1.53,6.61,6.61,0,0,1,2.27-.09,6,6,0,0,1,2.16.72l-.8,2.18a4.75,4.75,0,0,0-3.19-.5A1.42,1.42,0,0,0,210.46,289.51Z"/><path class="cls-2" d="M228.32,281.59l.81,2.25-5.22,1.89.84,2.32,4.7-1.7.78,2.15-4.7,1.7.84,2.34,5.39-2,.81,2.23-7.73,2.8-4.09-11.29Z"/><path class="cls-2" d="M236.61,287.64a2.11,2.11,0,0,0,3-1.43,3.79,3.79,0,0,0-.42-2.32l-2.84-6,2.26-1.07,2.87,6.07a5.58,5.58,0,0,1,.5,4.2,4.91,4.91,0,0,1-6.22,2.93,5.53,5.53,0,0,1-2.93-3L230,280.93l2.25-1.07,2.84,6A3.7,3.7,0,0,0,236.61,287.64Z"/><path class="cls-2" d="M250.31,274.57q1.49,2.48.09,4.29l4.64,2.22-2.63,1.58-4.1-2-1.47.89,2,3.28-2.14,1.29-6.18-10.29,3.63-2.18a5.76,5.76,0,0,1,3.67-1.1A3.8,3.8,0,0,1,250.31,274.57Zm-1.84,2.77a1.87,1.87,0,0,0-.34-1.45A1.58,1.58,0,0,0,247,275a2.91,2.91,0,0,0-1.62.56l-1.61,1,1.83,3.05,1.56-.94C247.93,278.18,248.36,277.75,248.47,277.34Z"/><path class="cls-2" d="M263.61,272.73a5.78,5.78,0,0,1-6.66,5,6.62,6.62,0,0,1-5.31-7.08,5.78,5.78,0,0,1,6.67-5,6.62,6.62,0,0,1,5.3,7.07Zm-3.32-3a4.12,4.12,0,0,0-2.41-1.61,3,3,0,0,0-3.77,2.82,4.12,4.12,0,0,0,.88,2.77,4.05,4.05,0,0,0,2.4,1.61,3,3,0,0,0,2.56-.52,3,3,0,0,0,1.21-2.31A4.1,4.1,0,0,0,260.29,269.71Z"/><path class="cls-2" d="M265.62,257l1.81-1.71,8.24,8.72-1.81,1.71-9-1.82,5.16,5.47-1.81,1.71-8.24-8.72,1.7-1.6,9.28,1.85Z"/><path class="cls-2" d="M283.23,255.36l-2.65-.88-3,3.57,1.32,2.47-1.71,2-6.06-11.42,1.55-1.84,12.28,4.05Zm-8.61-2.86,1.75,3.32,1.81-2.14Z"/></g><path class="cls-4" d="M365.41,238.52H14.49S192.71,248.64,365.41,238.52Z"/><path class="cls-4" d="M43.73,124.31l8.79,7.63-.67,2.3-11.5,1.69L52,139.33l-1.12,3.86-18.58-5.41,1.52-5.21,11.5-1.48-8.9-7.45L38,118.45l18.57,5.41-1.12,3.86Z"/><path class="cls-4" d="M45.33,107.65,43.84,111l-3.15-5L44,103.12Zm15.32,1.86a7.44,7.44,0,0,1,0,6,7,7,0,0,1-4,3.92,7.65,7.65,0,0,1-6-.4,7.53,7.53,0,0,1-4.26-4.19,7.11,7.11,0,0,1,3.79-9,6.6,6.6,0,0,1,5.46.25l2,.9-4.11,9.22a3,3,0,0,0,2.31-.27,3.65,3.65,0,0,0,1.62-1.76,4.24,4.24,0,0,0,0-3.65Zm-9.57-.21a2.82,2.82,0,0,0-1.45,1.49,3.36,3.36,0,0,0-.17,2.22,2.94,2.94,0,0,0,1.4,1.83l2.47-5.55A3.05,3.05,0,0,0,51.08,109.3Z"/><path class="cls-4" d="M66.83,103.22a5.7,5.7,0,0,1-4.15,2.66,8.22,8.22,0,0,1-5.77-1.13,7.89,7.89,0,0,1-3.76-4.37,5.78,5.78,0,0,1,.39-4.87,5.13,5.13,0,0,1,3.73-2.59L51,89.24,52.9,85.9,70.64,96.25,68.7,99.58l-1.7-1A4.91,4.91,0,0,1,66.83,103.22ZM59,101.47a4.29,4.29,0,0,0,3.05.62,3,3,0,0,0,2.17-1.45,2.85,2.85,0,0,0,.16-2.54,4.53,4.53,0,0,0-2.09-2.31,4.78,4.78,0,0,0-3.08-.7A2.8,2.8,0,0,0,57,96.47a2.93,2.93,0,0,0-.13,2.64A4.68,4.68,0,0,0,59,101.47Z"/><path class="cls-4" d="M58.63,84.28a2.46,2.46,0,0,1-1.8-.45,2.42,2.42,0,0,1-1-1.53,2.19,2.19,0,0,1,1.84-2.64,2.44,2.44,0,0,1,1.79.45,2.48,2.48,0,0,1,1,1.52,2.19,2.19,0,0,1-1.84,2.65ZM74.43,91l-2.21,3.17L60,85.62l2.21-3.17Z"/><path class="cls-4" d="M77.41,81.4a4.36,4.36,0,0,0,.58-4l3.59,0a7.75,7.75,0,0,1-1.32,6.38,7.26,7.26,0,0,1-5,2.76,8.21,8.21,0,0,1-8.61-7,7.13,7.13,0,0,1,1.58-5.37,7.8,7.8,0,0,1,5.64-2.78l.93,3.33a4.71,4.71,0,0,0-2.06.44,4.33,4.33,0,0,0-1.57,1.19,3.62,3.62,0,0,0-.82,2.7A3.92,3.92,0,0,0,72,81.73a3.88,3.88,0,0,0,3,1A3.54,3.54,0,0,0,77.41,81.4Z"/><path class="cls-4" d="M89.05,63.12a7.68,7.68,0,0,1,2.4,5.32,7.31,7.31,0,0,1-7.39,7.43,8.19,8.19,0,0,1-7.74-7.7,7.28,7.28,0,0,1,7.38-7.43A7.7,7.7,0,0,1,89.05,63.12Zm-7.59,7.63a4.47,4.47,0,0,0,2.79,1.41,3.23,3.23,0,0,0,3.49-3.5,4.5,4.5,0,0,0-1.43-2.79,4.56,4.56,0,0,0-2.8-1.42A3.21,3.21,0,0,0,80,68,4.57,4.57,0,0,0,81.46,70.75Z"/><path class="cls-4" d="M100.7,57.14a4.49,4.49,0,0,1,1.08,3.68,5.54,5.54,0,0,1-2.1,3.46,9.9,9.9,0,0,1-6.3,2.16L93,63.35a7,7,0,0,0,4.69-1.55,2,2,0,0,0,.71-1,1,1,0,0,0-.2-.93,1.21,1.21,0,0,0-1.08-.36,6.55,6.55,0,0,0-1.88.48c-.75.28-1.34.49-1.77.6a10.44,10.44,0,0,1-1.57.26,3.5,3.5,0,0,1-3.2-1.4,4.22,4.22,0,0,1-.95-3.58A6,6,0,0,1,90,52.33a8.29,8.29,0,0,1,4.89-1.75l.66,3.05A6,6,0,0,0,92,54.89c-.92.76-1.15,1.41-.71,2a1,1,0,0,0,1,.35,11,11,0,0,0,1.94-.6c.87-.33,1.49-.56,1.87-.67a9.73,9.73,0,0,1,1.49-.28A3.48,3.48,0,0,1,100.7,57.14Z"/><path class="cls-4" d="M101.5,53.62a2.63,2.63,0,0,1-2-2.81,2.13,2.13,0,0,1,.9-1.52,2.1,2.1,0,0,1,1.72-.36,2.47,2.47,0,0,1,1.54,1,2.44,2.44,0,0,1,.48,1.79,2.2,2.2,0,0,1-2.62,1.88Z"/><path class="cls-4" d="M113.05,46l-2.41-12.92,3.73-2.24,3.76,20.31-2.91,1.75L99.06,40l3.73-2.24Z"/><path class="cls-4" d="M134.94,40.32a7.5,7.5,0,0,1-4,4.45,7,7,0,0,1-5.61.27,7.64,7.64,0,0,1-4.21-4.24,7.54,7.54,0,0,1-.42-5.95,7.12,7.12,0,0,1,8.83-4.29,6.63,6.63,0,0,1,3.93,3.8l.93,2-9.18,4.21a3,3,0,0,0,1.91,1.31,3.55,3.55,0,0,0,2.38-.23,4.33,4.33,0,0,0,2.43-2.73Zm-7-6.49a2.82,2.82,0,0,0-2.07.16,3.32,3.32,0,0,0-1.59,1.55,2.91,2.91,0,0,0-.17,2.3l5.52-2.53A3,3,0,0,0,127.89,33.83Z"/><path class="cls-4" d="M138.74,28.59,141,34.88A2,2,0,0,0,141.8,36a1.22,1.22,0,0,0,1.09.13,2.19,2.19,0,0,0,1.37-1.6l2.33,2.26a5.42,5.42,0,0,1-3,2.94,4.55,4.55,0,0,1-3.65-.21,5.25,5.25,0,0,1-2.58-3.16l-2.3-6.47-1.53.54-1-2.81,1.53-.55-1.49-4.2,3.67-1.3,1.49,4.2,3.15-1.12,1,2.82Z"/><path class="cls-4" d="M159.14,32.85a7.43,7.43,0,0,1-4.73,3.67,7,7,0,0,1-5.57-.72,7.66,7.66,0,0,1-3.39-4.92,7.49,7.49,0,0,1,.65-5.94,6.77,6.77,0,0,1,4.28-3.24,6.87,6.87,0,0,1,5.16.59,6.63,6.63,0,0,1,3.2,4.44l.55,2.14-9.78,2.51A3,3,0,0,0,151.16,33a3.61,3.61,0,0,0,2.38.18A4.24,4.24,0,0,0,156.42,31Zm-5.78-7.63a2.83,2.83,0,0,0-2.07-.21,3.3,3.3,0,0,0-1.84,1.24,2.93,2.93,0,0,0-.57,2.24L154.76,27A3.06,3.06,0,0,0,153.36,25.22Z"/><path class="cls-4" d="M167.85,22.18a2.86,2.86,0,0,0-2.33,1.72,6.39,6.39,0,0,0-.27,3.56l1.06,6.36-3.81.64-2.44-14.69,3.81-.64.32,1.94a6.51,6.51,0,0,1,1.59-1.83,4.89,4.89,0,0,1,2.14-1l.66,3.85Z"/><path class="cls-4" d="M170.58,16.27a2.63,2.63,0,0,1-.37-3.44,2.15,2.15,0,0,1,1.53-.87,2.09,2.09,0,0,1,1.67.53,2.6,2.6,0,0,1,.37,3.44,2.08,2.08,0,0,1-1.52.87A2.13,2.13,0,0,1,170.58,16.27Zm5.31,16.32-3.84.41-1.59-14.81,3.84-.41Z"/><path class="cls-4" d="M182.14,23.82l.24,8.3-3.86.11-.44-14.88,3.86-.11L182,18.9a5.23,5.23,0,0,1,3.88-2,4.76,4.76,0,0,1,3.72,1.55,6.44,6.44,0,0,1,1.61,4.39l.27,9-3.86.12-.25-8.41c-.07-2.29-.88-3.41-2.44-3.37a2.77,2.77,0,0,0-2,1A3.65,3.65,0,0,0,182.14,23.82Z"/><path class="cls-4" d="M205.58,32.8,202,32.54l.13-1.8a4.48,4.48,0,0,1-3.83,1.75,5.3,5.3,0,0,1-3.59-1.64,4.73,4.73,0,0,1-1.22-3.75,4,4,0,0,1,1.79-3.3,7,7,0,0,1,4.3-.82l2.87.21v-.08a2.1,2.1,0,0,0-2.16-2.55,5.91,5.91,0,0,0-2.15.27,6.92,6.92,0,0,0-2,.93L194.62,19A9.81,9.81,0,0,1,201,17.29a6.15,6.15,0,0,1,4,1.65,5.33,5.33,0,0,1,1.27,4.4Zm-3.46-5.94,0-.72L199.76,26q-2.31-.16-2.43,1.38a1.49,1.49,0,0,0,.46,1.27,2.58,2.58,0,0,0,1.55.54,2.69,2.69,0,0,0,1.86-.54A2.28,2.28,0,0,0,202.12,26.86Z"/><path class="cls-4" d="M217,23.24a2.86,2.86,0,0,0-2.75.89,6.35,6.35,0,0,0-1.39,3.3l-1,6.37L208,33.19l2.33-14.7,3.82.6L213.88,21A6.56,6.56,0,0,1,216,19.8a4.61,4.61,0,0,1,2.35-.3l-.59,3.85Z"/><path class="cls-4" d="M221.33,35.66l-3.77-.83,3.18-14.55,3.78.83Zm.13-17.16a2.61,2.61,0,0,1,.74-3.38,2.14,2.14,0,0,1,1.73-.34,2.11,2.11,0,0,1,1.42,1,2.5,2.5,0,0,1,.27,1.83,2.46,2.46,0,0,1-1,1.55,2.08,2.08,0,0,1-1.72.34A2.1,2.1,0,0,1,221.46,18.5Z"/><path class="cls-4" d="M239.35,33a7.67,7.67,0,0,1-3.58,4.62,7.32,7.32,0,0,1-10-3,7.68,7.68,0,0,1-.41-5.82,7.7,7.7,0,0,1,3.59-4.63,7.26,7.26,0,0,1,10,3.05A7.67,7.67,0,0,1,239.35,33Zm-10.3-3.12a4.52,4.52,0,0,0,.06,3.13,3.24,3.24,0,0,0,4.73,1.43,4.42,4.42,0,0,0,1.79-2.57,4.55,4.55,0,0,0-.06-3.14,3.2,3.2,0,0,0-4.73-1.43A4.52,4.52,0,0,0,229.05,29.92Z"/><path class="cls-4" d="M250.09,40.55a4.48,4.48,0,0,1-2.74,2.68,5.59,5.59,0,0,1-4-.24,9.63,9.63,0,0,1-2.75-1.78,9.39,9.39,0,0,1-2.11-2.78L241,36.68a7.1,7.1,0,0,0,3.57,3.43,2,2,0,0,0,1.21.16,1,1,0,0,0,.73-.62,1.23,1.23,0,0,0-.19-1.12,6.45,6.45,0,0,0-1.3-1.44c-.6-.53-1.06-1-1.36-1.28a10.17,10.17,0,0,1-1-1.27,3.5,3.5,0,0,1-.26-3.48,4.21,4.21,0,0,1,2.72-2.52,6,6,0,0,1,4.18.33,8.38,8.38,0,0,1,3.84,3.51l-2.39,2A6.07,6.07,0,0,0,248,31.78c-1.1-.45-1.79-.36-2.06.29a1,1,0,0,0,.18,1.06,10.92,10.92,0,0,0,1.43,1.44c.7.6,1.19,1,1.47,1.34a9.13,9.13,0,0,1,.94,1.18A3.48,3.48,0,0,1,250.09,40.55Z"/><path class="cls-4" d="M253.58,39.61a2.63,2.63,0,0,1,1.54-3.1,2.16,2.16,0,0,1,1.76.09A2.12,2.12,0,0,1,258,38a2.43,2.43,0,0,1-.19,1.84A2.38,2.38,0,0,1,256.46,41a2.1,2.1,0,0,1-1.75-.08A2.12,2.12,0,0,1,253.58,39.61Z"/><path class="cls-4" d="M267.33,55.49l.76-4.44-6.44-3.94L258,49.8l-3.64-2.23,16.73-12.44,3.31,2L271,57.72Zm2.46-14.43-4.86,3.61L268.77,47Z"/><path class="cls-4" d="M287,51.23a5.74,5.74,0,0,1,2.13,4.4,7.85,7.85,0,0,1-1.9,5.43,8.2,8.2,0,0,1-5,3.16,5.68,5.68,0,0,1-4.83-1A4.91,4.91,0,0,1,275.54,59l-1.22,1.54-3-2.39L284,42.05l3,2.4-4.53,5.73A5.14,5.14,0,0,1,287,51.23Zm-8.06,3.46a4.57,4.57,0,0,0-1.1,2.91,2.85,2.85,0,0,0,1.08,2.31,3,3,0,0,0,2.55.55A4.26,4.26,0,0,0,284,58.78a4.7,4.7,0,0,0,1.11-3,3,3,0,0,0-1.08-2.41,2.86,2.86,0,0,0-2.56-.48A4.79,4.79,0,0,0,278.89,54.69Z"/><path class="cls-4" d="M298.81,72.64a7.67,7.67,0,0,1-5.32,2.41,7.29,7.29,0,0,1-7.44-7.37,8.17,8.17,0,0,1,7.68-7.76,7.26,7.26,0,0,1,7.44,7.37A7.67,7.67,0,0,1,298.81,72.64Zm-7.65-7.57a4.48,4.48,0,0,0-1.4,2.79,3.23,3.23,0,0,0,3.51,3.48,4.45,4.45,0,0,0,2.78-1.44,4.51,4.51,0,0,0,1.42-2.8A3.22,3.22,0,0,0,294,63.62,4.53,4.53,0,0,0,291.16,65.07Z"/><path class="cls-4" d="M303.09,85.61a5.69,5.69,0,0,1-4.55-2.17,6,6,0,0,1-1.34-4.8,7.37,7.37,0,0,1,2.94-4.78A7.76,7.76,0,0,1,305.56,72,5.79,5.79,0,0,1,310,74a4.94,4.94,0,0,1,.87,4.56l1.53-1.24,2.42,3-10.1,8.15a9.08,9.08,0,0,1-3.16,1.73,6.15,6.15,0,0,1-3,.19A7.55,7.55,0,0,1,294,87.65a10.18,10.18,0,0,1-1.56-2.79,8.88,8.88,0,0,1-.57-3.16l3.37-.8a6.25,6.25,0,0,0,1.32,4.1,4.72,4.72,0,0,0,3,1.9A4.65,4.65,0,0,0,303.09,85.61Zm3.74-3.72a4.07,4.07,0,0,0,1.61-2.49,3,3,0,0,0-.65-2.42,3.14,3.14,0,0,0-2.27-1.19,3.83,3.83,0,0,0-2.8,1,4.19,4.19,0,0,0-1.62,2.55,3,3,0,0,0,.63,2.52A2.92,2.92,0,0,0,304,83,4.21,4.21,0,0,0,306.83,81.89Z"/><path class="cls-4" d="M311,101.68l-2-3.05,1.51-1a4.47,4.47,0,0,1-3.7-2A5.23,5.23,0,0,1,306,91.8a4.71,4.71,0,0,1,2.26-3.23A4,4,0,0,1,312,88,7.07,7.07,0,0,1,315.2,91l1.56,2.42.07,0a2.08,2.08,0,0,0,.73-3.26,5.84,5.84,0,0,0-1.51-1.56,6.6,6.6,0,0,0-1.92-1l1.32-2.9a9.85,9.85,0,0,1,5.17,4.08,6.09,6.09,0,0,1,1.09,4.19A5.3,5.3,0,0,1,319,96.54Zm2.67-6.34.6-.39-1.31-2c-.84-1.3-1.69-1.67-2.56-1.11a1.46,1.46,0,0,0-.73,1.14,2.55,2.55,0,0,0,.49,1.56,2.77,2.77,0,0,0,1.56,1.16A2.3,2.3,0,0,0,313.66,95.34Z"/><path class="cls-4" d="M314.51,108.79a5.71,5.71,0,0,1,0-4.93,8.26,8.26,0,0,1,4.11-4.22,7.87,7.87,0,0,1,5.7-.76,5.73,5.73,0,0,1,3.87,3,5.14,5.14,0,0,1,.14,4.54l6.53-3.28,1.73,3.45-18.35,9.22-1.73-3.45,1.76-.88A4.92,4.92,0,0,1,314.51,108.79Zm5.73-5.6a4.31,4.31,0,0,0-2.18,2.22,3,3,0,0,0,0,2.61,2.84,2.84,0,0,0,2.05,1.52,4.56,4.56,0,0,0,3.06-.49,4.83,4.83,0,0,0,2.28-2.2,2.84,2.84,0,0,0,0-2.6,2.93,2.93,0,0,0-2.14-1.54A4.66,4.66,0,0,0,320.24,103.19Z"/><path class="cls-4" d="M331,128.5a7.62,7.62,0,0,1-5.84-.07,7.31,7.31,0,0,1-3.63-9.83,8.21,8.21,0,0,1,10.25-3.78,6.9,6.9,0,0,1,3.9,4.15,6.82,6.82,0,0,1-.28,5.68A7.67,7.67,0,0,1,331,128.5Zm-3.73-10.09a4.42,4.42,0,0,0-2.45,1.93,3.22,3.22,0,0,0,1.71,4.64,4.45,4.45,0,0,0,3.12-.12,4.56,4.56,0,0,0,2.47-1.94,3.1,3.1,0,0,0,.24-2.73,3.06,3.06,0,0,0-1.95-1.91A4.51,4.51,0,0,0,327.31,118.41Z"/><path class="cls-4" d="M331.54,141.59a4.48,4.48,0,0,1-3.8-.57,5.57,5.57,0,0,1-2.25-3.37,9.61,9.61,0,0,1-.23-3.26,9.17,9.17,0,0,1,.94-3.36l2.95,1a7.08,7.08,0,0,0-.58,4.91,2,2,0,0,0,.6,1.07,1,1,0,0,0,.93.21,1.23,1.23,0,0,0,.78-.83,6.43,6.43,0,0,0,.37-1.9,16.2,16.2,0,0,1,.2-1.86,10,10,0,0,1,.43-1.54,3.48,3.48,0,0,1,2.62-2.3,4.2,4.2,0,0,1,3.64.64A6,6,0,0,1,340.4,134a8.33,8.33,0,0,1-.48,5.18l-3-.7a6.08,6.08,0,0,0,.38-3.81c-.3-1.16-.79-1.64-1.47-1.47a1,1,0,0,0-.74.78,11.23,11.23,0,0,0-.28,2c-.06.93-.12,1.58-.18,2a9.43,9.43,0,0,1-.38,1.47A3.45,3.45,0,0,1,331.54,141.59Z"/><g class="cls-7"><circle class="cls-8" cx="189.16" cy="173.01" r="131.85"/><circle class="cls-3" cx="117.52" cy="120.4" r="37.76"/><path class="cls-2" d="M117.82,108.73v4.73a1,1,0,0,1-.63.94A1.09,1.09,0,0,1,116,114a1.17,1.17,0,0,1-.16-.75v-9.07c0-.1,0-.21,0-.31,0-.34-.12-.34-.37-.2-1.74,1-3.49,2-5.23,3a12.15,12.15,0,0,1-3.88,1.49c-.3.06-.38.17-.24.45.72,1.44,1.43,2.87,2.14,4.31l2.19,4.41c.46.94.91,1.9,1.41,2.83a2.37,2.37,0,0,1,.23,1.47,7.72,7.72,0,0,1-3.62,5.8,7.72,7.72,0,0,1-10.72-2.62,7.09,7.09,0,0,1-1.07-3.94,1.39,1.39,0,0,1,.14-.53l3-6q1.41-2.82,2.79-5.64c.2-.39.17-.41-.24-.5a11.08,11.08,0,0,1-3.47-1.28,1,1,0,0,1-.37-1.36,1,1,0,0,1,1.27-.41,10.7,10.7,0,0,0,2.78,1,9.18,9.18,0,0,0,6.47-1.13c1.7-1,3.44-2,5.17-2.91.35-.19.31-.3.06-.54a3.45,3.45,0,0,1-1.08-3.44,3.7,3.7,0,1,1,6.28,3.34c-.41.41-.41.42.1.71,1.86,1,3.69,2.15,5.59,3.13a8.82,8.82,0,0,0,8.4-.07,1.15,1.15,0,0,1,1.15-.1.94.94,0,0,1,.52.85,1,1,0,0,1-.5.91,10.82,10.82,0,0,1-3.47,1.27c-.36.06-.4.18-.25.48,1,2,2,4,3,6l2.82,5.71a1.25,1.25,0,0,1,.13.6,7.34,7.34,0,0,1-2,5.06,7.44,7.44,0,0,1-7.43,2.39,7.6,7.6,0,0,1-5.83-5.84c0-.11-.05-.22-.08-.34a3.4,3.4,0,0,1,.32-2.51c1.86-3.65,3.66-7.32,5.47-11,.24-.48.22-.48-.3-.59a12.52,12.52,0,0,1-3.49-1.33l-5.44-3.08c-.37-.21-.42-.19-.42.26v4.73Zm-13.45.93c-.4.83-.77,1.57-1.14,2.31-1.25,2.53-2.5,5.07-3.76,7.59-.15.29-.06.32.2.32H109c.43,0,.44,0,.26-.41s-.4-.82-.6-1.23c-1.06-2.15-2.12-4.29-3.19-6.44Zm24.9,0c-.23.46-.43.84-.62,1.23q-1.09,2.2-2.18,4.41t-2.06,4.16c-.19.39-.17.41.27.41H134c.23,0,.3,0,.18-.29-.44-.87-.85-1.75-1.28-2.63-.76-1.54-1.53-3.07-2.3-4.61C130.18,111.48,129.75,110.61,129.27,109.67Zm0,12.25h-5.08c-.48,0-.51,0-.37.52a5.68,5.68,0,0,0,8.54,3.23,5.71,5.71,0,0,0,2.4-3.22c.14-.45.1-.52-.38-.52Zm-24.86,0H99.24c-.43,0-.49.08-.34.49s.17.52.28.77a5.69,5.69,0,0,0,10.67-.81c.11-.44.1-.45-.37-.46Zm10.75-23a1.68,1.68,0,1,0,3.35,0,1.68,1.68,0,0,0-3.35,0Z"/><path class="cls-2" d="M116.81,143.3H103.6c-.91,0-1.28-.36-1.27-1.28a14.11,14.11,0,0,1,0-2,3.73,3.73,0,0,1,3.73-3.37c.51,0,.53,0,.51-.54a3.74,3.74,0,0,1,1.54-3.36,3.58,3.58,0,0,1,2.19-.72h4.8c.69,0,.69,0,.69-.67v-9.34a1,1,0,0,1,.31-.85.92.92,0,0,1,1-.22,1,1,0,0,1,.64,1c0,3.07,0,6.15,0,9.22,0,.13,0,.26,0,.39,0,.38.1.5.48.49q2.45,0,4.89,0a3.72,3.72,0,0,1,3.8,3.1,5,5,0,0,1,0,1.09c0,.32.11.43.43.43a3.72,3.72,0,0,1,3.2,1.65,4.17,4.17,0,0,1,.67,2.25c0,.48,0,1,0,1.45a1.12,1.12,0,0,1-1.27,1.26C125.64,143.28,121.23,143.3,116.81,143.3Zm0-1.94h11.65c.95,0,.84.14.84-.86a1.67,1.67,0,0,0-1.74-1.76H106.09a1.64,1.64,0,0,0-1.67,1.31,3.38,3.38,0,0,0,0,.78c0,.53,0,.53.54.53Zm0-7.24H110.5a3.76,3.76,0,0,0-.58,0,1.81,1.81,0,0,0-1.32,2c0,.56,0,.57.55.57h15.68c.14,0,.2-.09.22-.23.13-1.29-.53-2.39-1.92-2.35C121,134.17,118.93,134.12,116.83,134.12Z"/><path class="cls-2" d="M115.83,117.7a1,1,0,1,1,2,0,1,1,0,0,1-2,0Z"/><circle class="cls-3" cx="261.18" cy="120.4" r="37.76"/><path class="cls-2" d="M286.63,112.71v3.8a4,4,0,0,1-2,3.51c-.29.18-.34.33-.25.68a9.46,9.46,0,0,1-.25,6.06,6.85,6.85,0,0,1-2.48,3,12.64,12.64,0,0,1-5.12,2l-.45.12c-.74.16-.73.16-.75.93a20.1,20.1,0,0,1-.08,3.2,4.69,4.69,0,0,1-4.42,3.74,4.63,4.63,0,0,1-4.47-2.57,3.83,3.83,0,0,1-.51-1.87c0-.95,0-1.9,0-2.85,0-.35-.11-.49-.44-.55a15.93,15.93,0,0,1-4.12-1.18,7.48,7.48,0,0,1-4.62-5.28,9.51,9.51,0,0,1,.16-4.74.51.51,0,0,0-.24-.68,4.25,4.25,0,0,1-1.85-2.43,3.32,3.32,0,0,1-.16-1c0-2.55-.06-5.11,0-7.66a6.73,6.73,0,0,1,3.27-5.65,6.94,6.94,0,0,1,5.47-.91,6,6,0,0,1,1.78.69.63.63,0,0,0,.62,0,11.28,11.28,0,0,1,3.78-.89,11.9,11.9,0,0,1,5.2.62,2.38,2.38,0,0,0,2.08-.09,6.69,6.69,0,0,1,4.66-.33,7,7,0,0,1,5.15,6.68Zm-5.74,2.15a11.51,11.51,0,0,0-.57-4.44,9.3,9.3,0,0,0-3.19-4.15,10.4,10.4,0,0,0-4.87-2c-.65-.08-.65-.09-.65.57,0,2.58,0,5.16,0,7.74a8.13,8.13,0,0,1-1.34,4.54c-.17.28,0,.31.19.3a6.93,6.93,0,0,1,1.44.09,6.22,6.22,0,0,1,2.38.73,2,2,0,0,1,1.06,1.41,4.18,4.18,0,0,1-.33,2.26,4.88,4.88,0,0,1-3.09,2.68c-.14,0-.32.06-.31.28a15.82,15.82,0,0,0,.08,2.92,2.75,2.75,0,0,0,2.75,2.24,11.12,11.12,0,0,0,5.26-1.44,6,6,0,0,0,2.32-2.26,6.73,6.73,0,0,0,.26-5.6c-.32-1-.84-1.91-1.1-2.92A10,10,0,0,1,280.89,114.86Zm-11.26-6.19v-4c0-.47-.06-.51-.53-.45a10.5,10.5,0,0,0-5.7,2.6,9,9,0,0,0-2.61,4,11.62,11.62,0,0,0-.44,4,10,10,0,0,1-.51,3.8c-.11.29,0,.37.27.37,1.07,0,2.14,0,3.21,0a6.2,6.2,0,0,0,3.21-1,6.5,6.5,0,0,0,3.1-5.75ZM261.14,121c-.58,0-1.17,0-1.75,0-.42,0-.57.14-.66.53a8.15,8.15,0,0,0-.2,2.51,5.38,5.38,0,0,0,2.35,4.09A10.23,10.23,0,0,0,267,130a2.59,2.59,0,0,0,2.54-2.2,22.63,22.63,0,0,0,.08-2.73c0-.32-.11-.45-.41-.55a4.57,4.57,0,0,1-3.11-3.13c-.25-.77-.22-.78-1-.61A20.27,20.27,0,0,1,261.14,121Zm-4.54-8.55v3.67a2.49,2.49,0,0,0,.89,2c.17.15.31.18.39-.09a11,11,0,0,0,.33-1.12,20.26,20.26,0,0,0,.15-3.39,10.66,10.66,0,0,1,.22-2.25,11.12,11.12,0,0,1,4.35-6.69c.07-.06.22-.09.19-.22s-.17-.1-.27-.12a5,5,0,0,0-4.52,1.13,4.81,4.81,0,0,0-1.67,3.25C256.52,110.05,256.64,111.4,256.6,112.49Zm21.46-8.06a14,14,0,0,1,2.26,2.07,11.19,11.19,0,0,1,2.32,4.55,18.54,18.54,0,0,1,.24,4.08,10.44,10.44,0,0,0,.46,2.88c.11.35.21.37.49.14a2.3,2.3,0,0,0,.82-1.87c0-2.34,0-4.69,0-7a4.63,4.63,0,0,0-.43-2,5,5,0,0,0-4.59-3A4,4,0,0,0,278.06,104.43Zm-4.68,29.41c0-.56,0-1,0-1.47a.43.43,0,0,0-.33-.46,4.73,4.73,0,0,1-1.17-.53c-.26-.17-.28,0-.28.18,0,.5,0,1,0,1.49,0,.69-.34,1.07-.95,1.07s-1-.38-1-1.1c0-.49,0-1,0-1.48,0-.16,0-.34-.24-.18a5.4,5.4,0,0,1-1.27.58c-.22.07-.26.21-.26.41v2.42a3.39,3.39,0,0,0,.23,1.26,2.72,2.72,0,0,0,2.71,1.73,2.68,2.68,0,0,0,2.52-2.27A13.68,13.68,0,0,0,273.38,133.84Zm-2.7-14.34a6,6,0,0,0-2.34.34.51.51,0,0,0-.39.71,2.83,2.83,0,0,0,.59,1.22,2.63,2.63,0,0,0,2.88.86,2.58,2.58,0,0,0,1.92-2.18.45.45,0,0,0-.33-.59A5.64,5.64,0,0,0,270.68,119.5Z"/><path class="cls-2" d="M246.1,101.25c0,1.39,0,2.79,0,4.18,0,.4.13.53.52.5s1,0,1.26.55a1.2,1.2,0,0,1,.11.53c0,.75,0,1.51,0,2.26,0,.31.1.45.41.41h0c1-.1,1.45.24,1.44,1.44,0,4,0,8,0,12,0,.74-.38,1.13-1,1.11a.86.86,0,0,1-.92-.9c0-.63,0-1.25,0-1.88,0-.33-.09-.46-.44-.46q-2.33,0-4.65,0c-.35,0-.46.14-.45.47,0,.88,0,1.77,0,2.65,0,.38.12.52.49.5.55,0,1,0,1.3.63a1,1,0,0,1-.78,1.33h-.16c-.85,0-.85,0-.85.9s0,1.51,0,2.27c0,.38.13.51.5.48a1.58,1.58,0,0,1,.8.11,1,1,0,0,1,.56,1.06.93.93,0,0,1-.92.8h-.16c-.83,0-.78-.13-.78.81,0,1.09-.13.95,1,1,1.37,0,2.73,0,4.1,0,.35,0,.5-.1.48-.47,0-.6,0-1.2,0-1.8a1,1,0,0,1,.95-1,1,1,0,0,1,1,1c0,.62,0,1.23,0,1.84,0,.32.11.45.43.43a1.86,1.86,0,0,1,.81.08,1,1,0,0,1,.63,1.1.93.93,0,0,1-1,.8H248.4c-.33,0-.43.11-.43.43,0,1.75,0,3.51,0,5.27,0,.33.12.45.44.42a4.87,4.87,0,0,1,.54,0,1,1,0,0,1,0,1.92c-1,0-2,0-3,0h-4.61a.89.89,0,0,1-1-1,.87.87,0,0,1,.9-.93h.23c.81,0,.75.08.75-.73,0-1.64,0-3.28,0-4.92,0-.35-.08-.49-.45-.48-.76,0-1.51,0-2.27,0s-1-.33-1-.95a.94.94,0,0,1,1-1c.85,0,.85,0,.85-.86V110.92a1.46,1.46,0,0,1,.13-.8.92.92,0,0,1,.89-.44c.86,0,.86,0,.86-.89,0-.62,0-1.25,0-1.87a.89.89,0,0,1,1-1c.89,0,.89,0,.89-.9,0-2.67,0-5.34,0-8a.9.9,0,0,1,1-1,.93.93,0,0,1,1,1C246.1,98.43,246.1,99.84,246.1,101.25Zm1.77,14.12v-3.32c0-.24,0-.4-.33-.39h-4.85c-.25,0-.35.11-.35.35s0,.73,0,1.1.11.33.34.32a4.85,4.85,0,0,1,.66,0,.94.94,0,0,1,.76,1.38,1.16,1.16,0,0,1-1.21.59c-.54,0-.55,0-.55.55,0,.86,0,1.72,0,2.58,0,.35.11.48.47.48,1.53,0,3.07,0,4.61,0,.37,0,.46-.13.46-.48C247.86,117.48,247.87,116.43,247.87,115.37ZM246,139.06c0-.9,0-1.8,0-2.69,0-.27-.08-.38-.36-.37h-1.09c-.24,0-.33.1-.33.33v5.46c0,.23.09.34.33.33s.7,0,1,0,.4-.11.4-.41C246,140.83,246,140,246,139.06Zm0-30.22c0-1.06.16-.92-.92-.93h0c-.89,0-.81-.08-.81.82,0,1.11-.13.94,1,.94C246.12,109.68,246,109.8,246,108.84Z"/><path class="cls-2" d="M248.83,128.49a.89.89,0,0,1-1-1,1,1,0,0,1,1-1,1,1,0,0,1,1,1A.93.93,0,0,1,248.83,128.49Z"/><path class="cls-2" d="M279.12,114.26a1,1,0,0,1-1.5,1,1.15,1.15,0,0,1-.5-.88.84.84,0,0,0-1.32-.66,1,1,0,0,0-.43.71c-.11.67-.51,1-1.07,1a1,1,0,0,1-.91-1.19,2.85,2.85,0,0,1,3-2.66A2.8,2.8,0,0,1,279.12,114.26Z"/><path class="cls-2" d="M265,111.56a2.77,2.77,0,0,1,2.86,2.82,1,1,0,0,1-1,1,1,1,0,0,1-1-.92.87.87,0,0,0-1.38-.75,1,1,0,0,0-.4.81,1,1,0,0,1-.87.86,1,1,0,0,1-1.05-.65,1.63,1.63,0,0,1,0-.93A2.84,2.84,0,0,1,265,111.56Z"/><circle class="cls-2" cx="189.52" cy="120.36" r="43.96"/><circle class="cls-4" cx="189.52" cy="120.36" r="41.82"/><path class="cls-2" d="M186.43,128.1c0-1.34,0-2.69,0-4,0-.38-.13-.5-.5-.49a4.62,4.62,0,0,0-4.2,2.13,4.36,4.36,0,0,0-.32,4.33,1.46,1.46,0,0,1,.14,1.33,1.09,1.09,0,0,1-.93.61,1,1,0,0,1-1-.48,6.48,6.48,0,0,1-.18-6.38,6.59,6.59,0,0,1,4.52-3.58,9.43,9.43,0,0,1,2-.19c.33,0,.46-.12.45-.46,0-.85,0-1.7,0-2.55,0-.11.06-.27,0-.32s-.23.08-.33.15a11.58,11.58,0,0,1-3.82,2,12.1,12.1,0,0,1-13.3-4.67,19,19,0,0,0-1.65-1.82,8,8,0,0,1-2.12-5,1,1,0,0,0-.26-.62,8.07,8.07,0,0,1-1.94-5.29c0-1,.6-1.43,1.57-1.18,1.7.43,3.41.86,5.12,1.27a11.42,11.42,0,0,0,2.4.23c2.24,0,4.48,0,6.72,0a4.72,4.72,0,0,1,4.5,2.74,5.92,5.92,0,0,1,.41,1.36,2.57,2.57,0,0,0,2,2.08c.64.14.68,0,.75-.59a2.22,2.22,0,0,0-.92-2.11,5.63,5.63,0,0,1-1.94-5.92,5.89,5.89,0,0,1,5.17-4.75,6.17,6.17,0,0,1,4.39,11.17.67.67,0,0,0-.36.67,11.22,11.22,0,0,1,0,1.16c0,.34.15.45.45.41a2.44,2.44,0,0,0,2-1.24,4.25,4.25,0,0,0,.41-1.18,4.75,4.75,0,0,1,4.77-3.81c2.07,0,4.13,0,6.19,0a21.49,21.49,0,0,0,6.12-1c.77-.2,1.54-.4,2.31-.57a1,1,0,0,1,1.25,1,7.58,7.58,0,0,1-1.05,4.31,9.44,9.44,0,0,1-1,1.38.69.69,0,0,0-.16.43,7.6,7.6,0,0,1-2.21,5.13c-1.11,1.07-1.91,2.39-3,3.45a12.22,12.22,0,0,1-6.19,3.26,11.62,11.62,0,0,1-7.64-1.07,12.94,12.94,0,0,1-1.9-1.2c-.09-.06-.17-.19-.3-.13s-.05.19-.05.28c0,.87,0,1.74,0,2.6,0,.34.13.45.45.47a11.5,11.5,0,0,1,1.85.2,6.85,6.85,0,0,1,5.09,5.85,6.68,6.68,0,0,1-1.09,4.49,6.55,6.55,0,0,1-4.9,3c-.32,0-.63.07-1,.07s-.45.12-.45.45c0,1.19,0,2.37,0,3.55a6.52,6.52,0,0,1-.06,1.08c-.07.46,0,.55.46.54a4.35,4.35,0,0,1,2.95.94,4.26,4.26,0,0,1-.47,7,4.13,4.13,0,0,1-2.27.57,1.13,1.13,0,0,1-1.12-1.05,1.17,1.17,0,0,1,1-1.09,2.76,2.76,0,0,0,1.55-.58,2,2,0,0,0,.66-1.91,2,2,0,0,0-1.61-1.61,5.09,5.09,0,0,0-1.16-.09.36.36,0,0,0-.41.35,23.41,23.41,0,0,1-1,3.58c-.2.57-.4,1.14-.64,1.7a1,1,0,0,1-1,.7,1.06,1.06,0,0,1-1.08-.72c-.35-.91-.71-1.83-1-2.76a16.35,16.35,0,0,1-.62-2.48c0-.29-.2-.37-.47-.37H184a4.91,4.91,0,0,1-4.82-3.89,5,5,0,0,1,3.46-5.93,11.34,11.34,0,0,1,3.18-.25c.65,0,.65,0,.65-.64Zm19.85-11.79h-.46c-.55,0-1.1,0-1.64,0a1.12,1.12,0,0,1-1-.74,1,1,0,0,1,.24-1.08,1.06,1.06,0,0,1,.93-.35,10.44,10.44,0,0,0,3.39-.34,5.64,5.64,0,0,0,3.56-3.12c0-.09.13-.19,0-.28s-.19,0-.28,0a11.73,11.73,0,0,1-5,.69c-.91,0-1.47-.49-1.47-1.15s.61-1.14,1.51-1.16c.6,0,1.19,0,1.78,0a6.18,6.18,0,0,0,5.91-4.29c.11-.34,0-.41-.32-.32-.49.15-1,.25-1.5.4a17.84,17.84,0,0,1-5.86.69c-1.83,0-3.66,0-5.49,0a2.69,2.69,0,0,0-2.69,1.74c-.11.37-.22.74-.31,1.12a4.63,4.63,0,0,1-2.22,2.81,4.12,4.12,0,0,1-1.93.57c-.64,0-.64.06-.64.69v2.25a.69.69,0,0,0,.16.52,12.35,12.35,0,0,0,2.17,1.85,9.56,9.56,0,0,0,7.58,1.3A8,8,0,0,0,206.28,116.31Zm-33.46,0a7.62,7.62,0,0,0,2.36,1.4,9.6,9.6,0,0,0,5.43.53,10.27,10.27,0,0,0,5.55-3.16.76.76,0,0,0,.27-.52q0-1.32,0-2.64c0-.24-.1-.35-.33-.37a6.91,6.91,0,0,1-.9-.11,4.63,4.63,0,0,1-3.61-3.46,4.33,4.33,0,0,0-.67-1.72,2.91,2.91,0,0,0-2.35-1c-2.51,0-5,0-7.54,0a10.87,10.87,0,0,1-2.93-.47c-.79-.23-1.59-.41-2.39-.61-.28-.08-.33,0-.27.27a4.55,4.55,0,0,0,.5,1.15,6,6,0,0,0,3.5,2.91,10.44,10.44,0,0,0,3.48.29A2.91,2.91,0,0,1,174,109a1.1,1.1,0,0,1,.68,1,1.07,1.07,0,0,1-.69,1,1.72,1.72,0,0,1-.62.16,12.35,12.35,0,0,1-5.15-.68c-.09,0-.2-.12-.28,0s0,.22,0,.31a5.63,5.63,0,0,0,3.86,3.18,12.1,12.1,0,0,0,3.23.27,1,1,0,0,1,1,.69,1,1,0,0,1-.2,1.08,1.24,1.24,0,0,1-1,.41ZM193.54,102a3.94,3.94,0,0,0-7.87,0,3.94,3.94,0,1,0,7.87,0Zm-3,18.36v-12c0-.19-.09-.29-.3-.26a3.72,3.72,0,0,1-1.33,0c-.23,0-.32.07-.32.29v23.94a.28.28,0,0,0,.32.32h1c.59,0,.59,0,.59-.61Zm2.21,7.75c0,1.37,0,2.75,0,4.12,0,.27,0,.46.39.47a4.55,4.55,0,1,0,0-9.1c-.32,0-.42.14-.42.45C192.79,125.38,192.79,126.74,192.79,128.09Zm-6.36,9.51v-2.09c0-.57,0-.57-.59-.57s-1.16,0-1.73,0a2.71,2.71,0,0,0-1.45.38,2.78,2.78,0,0,0-1.37,2.89,2.68,2.68,0,0,0,2.29,2.27,21.73,21.73,0,0,0,2.55.08c.35,0,.43-.18.38-.47A19.55,19.55,0,0,1,186.43,137.6Zm3.19,6.9c.12-.36.21-.6.27-.85a34.25,34.25,0,0,0,.7-8.33c0-.28-.12-.39-.39-.38a9,9,0,0,1-1,0c-.43,0-.54.14-.54.54a44.06,44.06,0,0,0,.21,5.27A15.81,15.81,0,0,0,189.62,144.5Z"/><path class="cls-2" d="M185.43,149.07a1,1,0,0,1-1.08-1.09,1.1,1.1,0,1,1,1.08,1.09Z"/></g><path class="cls-3" d="M14.49,158.81H365.41S187.19,148.69,14.49,158.81Z"/></svg>