<svg id="Capa_1" data-name="Capa 1" xmlns="http://www.w3.org/2000/svg" width="68.27" height="64" viewBox="0 0 68.27 64"><defs><style>.cls-1{fill:#41b6e6;}</style></defs><path class="cls-1" d="M59.73,12.8H46.93V4.27A4.28,4.28,0,0,0,42.67,0H25.6a4.28,4.28,0,0,0-4.27,4.27V12.8H8.53A8.56,8.56,0,0,0,0,21.33V55.47A8.56,8.56,0,0,0,8.53,64h51.2a8.56,8.56,0,0,0,8.54-8.53V21.33A8.56,8.56,0,0,0,59.73,12.8ZM25.6,4.27H42.67V12.8H25.6Zm25.6,38.4H38.4v12.8H29.87V42.67H17.07V34.13h12.8V21.33H38.4v12.8H51.2Z"/></svg>