<svg xmlns="http://www.w3.org/2000/svg" width="22.71" height="16" viewBox="0 0 22.71 16"><path d="M30.235,36.5a2.853,2.853,0,0,0-2.008-2.021C26.456,34,19.355,34,19.355,34s-7.1,0-8.873.478A2.853,2.853,0,0,0,8.475,36.5a32.125,32.125,0,0,0,0,11,2.853,2.853,0,0,0,2.008,2.021C12.253,50,19.355,50,19.355,50s7.1,0,8.873-.478A2.853,2.853,0,0,0,30.235,47.5a32.126,32.126,0,0,0,0-11Z" transform="translate(-8 -34)" fill="#030303"/><path d="M78,76.679V69.831l6.019,3.424Z" transform="translate(-69.013 -65.255)" fill="#fff"/></svg>